<svg width="19" height="12" viewBox="0 0 19 12" fill="none" xmlns="http://www.w3.org/2000/svg">
<path d="M16.0527 5.05263C16.015 2.30558 13.6964 0 10.8379 0C9.01681 0 7.30681 0.948948 6.36271 2.31663C5.94798 2.05042 5.44972 1.89474 4.91379 1.89474C3.46652 1.89474 2.2931 3.02589 2.2931 4.42105C2.2931 4.46937 2.29769 4.51642 2.30064 4.56442C2.29736 4.62189 2.2931 4.68 2.2931 4.73684C0.98669 5.34063 0 6.77589 0 8.25947C0 10.3168 1.74603 12 3.88026 12H11.9084C11.9536 12 11.9975 11.9949 12.0421 11.9934C12.0869 11.9949 12.1308 12 12.1761 12H15.3874C17.3742 12 19 10.4327 19 8.51747C19 6.82137 17.7244 5.35611 16.0527 5.05263Z" fill="#147FB5" fill-opacity="0.15"/>
</svg>
