<svg width="14" height="12" viewBox="0 0 14 12" fill="none" xmlns="http://www.w3.org/2000/svg">
<path d="M13.4293 11.6588C13.4293 11.8472 13.2682 12 13.0694 12H0.359915C0.161152 12 0 11.8472 0 11.6588C0 11.4704 0.161152 11.3176 0.359915 11.3176H13.0694C13.2682 11.3176 13.4293 11.4704 13.4293 11.6588ZM6.34934 6.05804C6.41872 6.11941 6.50685 6.14978 6.59485 6.14978C6.69113 6.14978 6.78718 6.11336 6.85808 6.04137C6.99368 5.90362 6.98581 5.68773 6.84049 5.55915C6.22346 5.01326 6.35546 3.90377 6.88575 3.27646C7.60526 2.42543 7.76363 0.908185 6.84045 0.0917348C6.69518 -0.0368485 6.46735 -0.0293425 6.33175 0.108495C6.19615 0.246248 6.20407 0.462174 6.34943 0.590715C6.9037 1.08087 6.89137 2.17871 6.32406 2.84977C5.95119 3.29088 5.72831 3.88202 5.71256 4.47167C5.69524 5.11608 5.92145 5.6795 6.34934 6.05804ZM14 5.34928V6.0038C14 6.94209 13.1948 7.7054 12.2051 7.7054H11.4016C10.8562 9.14289 9.4034 10.1738 7.7015 10.1738H5.72795C3.56063 10.1738 1.79741 8.50236 1.79741 6.44789V3.06314C1.79741 2.87472 1.95856 2.72196 2.15733 2.72196H4.46595C4.93456 2.04663 4.9136 1.05084 4.39334 0.590672C4.24803 0.462131 4.24015 0.246248 4.37575 0.108453C4.51135 -0.0293425 4.73913 -0.0368059 4.88445 0.0917774C5.8074 0.908185 5.64908 2.42538 4.92975 3.27642C4.39928 3.90381 4.26724 5.0133 4.88445 5.55911C5.02976 5.68769 5.03768 5.90353 4.90208 6.04137C4.76648 6.17912 4.5387 6.18658 4.39339 6.05809C3.96536 5.6795 3.73915 5.11612 3.75638 4.47167C3.76624 4.10426 3.85648 3.73625 4.01336 3.40432H2.51724V6.44789C2.51724 8.12612 3.95757 9.49141 5.72795 9.49141H7.7015C9.47187 9.49141 10.9122 8.12608 10.9122 6.44789V3.40432H8.20605C8.00729 3.40432 7.84614 3.25156 7.84614 3.06314C7.84614 2.87472 8.00729 2.72196 8.20605 2.72196H11.2721C11.4709 2.72196 11.632 2.87472 11.632 3.06314V3.64767H12.2051C13.1948 3.64767 14 4.41098 14 5.34928ZM13.2802 5.34928C13.2802 4.78726 12.7979 4.33004 12.2051 4.33004H11.632V7.02308H12.2051C12.7979 7.02308 13.2802 6.56581 13.2802 6.00384V5.34928Z" fill="#147FB5"/>
</svg>
