<svg width="15" height="15" viewBox="0 0 15 15" fill="none" xmlns="http://www.w3.org/2000/svg">
<path d="M14.3313 6.05148C14.0492 6.00923 13.7596 5.96872 13.4706 5.93104C13.4356 5.9265 13.4072 5.90274 13.3983 5.87057C13.2649 5.3865 13.0714 4.91938 12.8231 4.48221C12.8064 4.45286 12.8095 4.41583 12.8311 4.38779C13.0088 4.15678 13.185 3.92326 13.3548 3.69374C13.584 3.38384 13.5507 2.94409 13.2774 2.67078L12.3292 1.72255C12.0559 1.44927 11.6162 1.41598 11.3062 1.64526C11.0772 1.81466 10.8437 1.99085 10.6122 2.16895C10.5842 2.19051 10.5471 2.19365 10.5178 2.17698C10.0806 1.92865 9.61352 1.73509 9.12942 1.60167C9.09723 1.59285 9.07347 1.56443 9.06889 1.52934C9.03113 1.23988 8.99064 0.950308 8.94851 0.668705C8.89147 0.287463 8.55702 0 8.1705 0H6.8295C6.44295 0 6.1085 0.287463 6.05155 0.668676C6.00939 0.950338 5.9689 1.23988 5.93113 1.52939C5.92654 1.56446 5.9028 1.59282 5.87058 1.60167C5.38648 1.73515 4.91934 1.92868 4.48228 2.17698C4.4529 2.19365 4.41581 2.19042 4.3878 2.16895C4.15633 1.99085 3.9228 1.81466 3.69376 1.64523C3.38377 1.41598 2.94405 1.44932 2.6708 1.72258L1.72257 2.67081C1.44926 2.94415 1.41601 3.38393 1.64529 3.6938C1.81533 3.92367 1.99152 4.15713 2.16897 4.38779C2.1905 4.41577 2.19367 4.45283 2.177 4.48221C1.92862 4.91947 1.73508 5.38658 1.60169 5.87057C1.59287 5.90271 1.56446 5.92647 1.52942 5.93107C1.24055 5.96878 0.950978 6.00926 0.668732 6.05151C0.287462 6.10849 0 6.44301 0 6.82949V8.17054C0 8.55705 0.287461 8.89154 0.668673 8.94855C0.95092 8.99079 1.24052 9.03128 1.52939 9.06896C1.56446 9.07356 1.59282 9.09729 1.60166 9.12949C1.73505 9.6135 1.92862 10.0806 2.17697 10.5178C2.19364 10.5472 2.19047 10.5843 2.16894 10.6123C1.99105 10.8435 1.81486 11.077 1.64526 11.3063C1.41601 11.6162 1.44923 12.056 1.72254 12.3293L2.67077 13.2775C2.94411 13.5508 3.38388 13.5841 3.69376 13.3548C3.92277 13.1854 4.15627 13.0092 4.38777 12.8311C4.41575 12.8095 4.45284 12.8064 4.4822 12.8231C4.91931 13.0714 5.38639 13.2649 5.87055 13.3984C5.90275 13.4072 5.92651 13.4356 5.93108 13.4707C5.96884 13.7601 6.00936 14.0497 6.05149 14.3313C6.1085 14.7125 6.44295 15 6.8295 15H8.1705C8.55702 15 8.8915 14.7125 8.94848 14.3312C8.99064 14.0493 9.03113 13.7597 9.06886 13.4706C9.07346 13.4355 9.0972 13.4071 9.12939 13.3983C9.6135 13.2648 10.0806 13.0713 10.5177 12.823C10.5471 12.8064 10.5842 12.8095 10.6122 12.831C10.8436 13.0091 11.0772 13.1853 11.3062 13.3547C11.6161 13.5839 12.0558 13.5507 12.3292 13.2774L13.2774 12.3292C13.5507 12.0559 13.584 11.6161 13.3547 11.3062C13.1849 11.0767 13.0087 10.8432 12.831 10.6122C12.8095 10.5842 12.8063 10.5471 12.823 10.5177C13.0714 10.0805 13.2649 9.61339 13.3983 9.1294C13.4072 9.09717 13.4355 9.07344 13.4706 9.06884C13.7596 9.03117 14.0492 8.99065 14.3313 8.94843C14.7125 8.89145 15 8.55696 15 8.17045V6.8294C15 6.44298 14.7125 6.10846 14.3313 6.05148ZM14.2996 8.17059C14.2996 8.21308 14.2687 8.2497 14.2277 8.25588C13.9499 8.29745 13.6647 8.33729 13.3801 8.37447C13.0649 8.41555 12.807 8.63885 12.7231 8.94342C12.605 9.37169 12.4338 9.78504 12.214 10.1719C12.0578 10.447 12.0821 10.7875 12.2759 11.0394C12.451 11.267 12.6245 11.497 12.7917 11.7229C12.8163 11.7562 12.8122 11.804 12.7822 11.8341L11.8339 12.7823C11.8039 12.8124 11.7561 12.8164 11.7228 12.7918C11.4973 12.6249 11.2673 12.4514 11.0393 12.276C10.7874 12.0822 10.4469 12.0579 10.1719 12.2141C9.785 12.4338 9.37165 12.6051 8.94333 12.7232C8.63882 12.8071 8.41551 13.065 8.37435 13.3802C8.33723 13.665 8.29733 13.9502 8.25579 14.2278C8.24966 14.2688 8.21298 14.2997 8.1705 14.2997H6.8295C6.78702 14.2997 6.75034 14.2688 6.74421 14.2278C6.70276 13.9505 6.66283 13.6653 6.62565 13.3802C6.58454 13.065 6.36118 12.8071 6.05667 12.7232C5.62832 12.6051 5.21497 12.4338 4.82813 12.2141C4.70752 12.1456 4.57431 12.1118 4.44153 12.1118C4.27149 12.1118 4.10213 12.1672 3.96071 12.2761C3.73269 12.4515 3.50271 12.625 3.27721 12.7919C3.24387 12.8164 3.19615 12.8124 3.16612 12.7824L2.21787 11.8341C2.18781 11.8041 2.18371 11.7563 2.20837 11.723C2.3754 11.4972 2.54889 11.2673 2.72412 11.0395C2.91792 10.7876 2.94223 10.4471 2.78605 10.1721C2.56624 9.78507 2.39499 9.37174 2.27696 8.94351C2.19302 8.639 1.93515 8.41566 1.61997 8.37456C1.33544 8.33744 1.05024 8.29751 0.772296 8.25597C0.73131 8.24981 0.700431 8.21316 0.700431 8.17068V6.82964C0.700431 6.78716 0.73131 6.75051 0.772296 6.74436C1.05024 6.70278 1.33541 6.66288 1.61992 6.62576C1.93512 6.58469 2.19299 6.36136 2.27693 6.05681C2.39491 5.62861 2.56621 5.21526 2.78602 4.82827C2.94223 4.5532 2.91792 4.21271 2.72412 3.96081C2.54936 3.73359 2.37583 3.50366 2.20837 3.27731C2.18376 3.244 2.18784 3.19619 2.21787 3.16619L3.16606 2.21793C3.19606 2.18787 3.24384 2.18386 3.27715 2.20844C3.50265 2.37526 3.73263 2.54878 3.96065 2.72422C4.21261 2.91799 4.55307 2.94233 4.82816 2.78609C5.21497 2.56636 5.62832 2.39506 6.05664 2.277C6.36118 2.19306 6.58454 1.93519 6.62565 1.61998C6.66285 1.33489 6.70273 1.04971 6.74424 0.772329C6.75036 0.731401 6.78704 0.700492 6.82952 0.700492H8.17053C8.21301 0.700492 8.24969 0.731371 8.25582 0.772358C8.29733 1.04965 8.3372 1.3348 8.37441 1.61998C8.41551 1.93519 8.63887 2.19306 8.94339 2.277C9.37171 2.39506 9.78503 2.56636 10.1719 2.78609C10.447 2.94224 10.7875 2.91799 11.0393 2.72416C11.2674 2.54876 11.4973 2.37523 11.7228 2.20841C11.7561 2.18374 11.8039 2.18782 11.834 2.2179L12.7822 3.16613C12.8123 3.19619 12.8163 3.24397 12.7917 3.27726C12.6245 3.50325 12.451 3.73318 12.2759 3.96076C12.0821 4.21274 12.0578 4.55323 12.2141 4.8283C12.4338 5.21517 12.6051 5.62849 12.7232 6.05681C12.8071 6.36133 13.065 6.58463 13.3801 6.6257C13.6648 6.66285 13.95 6.70275 14.2278 6.7443C14.2688 6.75045 14.2997 6.7871 14.2997 6.82958V8.17059H14.2996Z" fill="#147FB5"/>
<path d="M3.25589 -7.86786e-08C1.46057 -7.86786e-08 -7.86783e-08 1.46058 -7.86783e-08 3.2559C-7.86783e-08 5.05122 1.46057 6.5118 3.25589 6.5118C5.0512 6.5118 6.51177 5.05122 6.51177 3.2559C6.51177 1.46058 5.0512 -7.86786e-08 3.25589 -7.86786e-08ZM3.25589 5.81133C1.84679 5.81133 0.70046 4.66497 0.70046 3.2559C0.70046 1.8468 1.84685 0.700463 3.25589 0.700463C4.66495 0.700463 5.81131 1.84683 5.81131 3.2559C5.81131 4.66497 4.66498 5.81133 3.25589 5.81133Z" transform="translate(4.24414 4.24414)" fill="#147FB5"/>
</svg>
