<svg width="13" height="13" viewBox="0 0 13 13" fill="none" xmlns="http://www.w3.org/2000/svg">
<path d="M11.9238 4.07105L12.9999 2.99495L11.7461 1.74118L12.2301 1.25721L11.692 0.719163L11.208 1.20313L10.0049 0.000101562L8.92874 1.07621L7.85252 0L6.23819 1.61426L8.51752 3.89349L3.89367 8.51712L1.6143 6.23785L0 7.85216L1.07684 8.92895L0.00058401 10.0051L1.20367 11.2082L0.701395 11.7104L1.2395 12.2485L1.74174 11.7462L2.99559 13L4.07182 11.9238L5.14748 12.9994L6.76184 11.3852L4.43174 9.05519L9.05558 4.43154L11.3856 6.76151L13 5.14723L11.9238 4.07105ZM2.99561 11.9239L1.07679 10.0051L1.61491 9.467L3.53374 11.3857L2.99561 11.9239ZM5.68566 11.3852L5.14751 11.9233L1.07618 7.85216L1.61433 7.31401L5.68566 11.3852ZM10.0049 1.07623L11.9237 2.99497L11.3857 3.533L9.46684 1.61426L10.0049 1.07623ZM7.31434 1.61426L7.85249 1.07613L11.9238 5.14728L11.3857 5.68543L7.31434 1.61426Z" fill="#147FB5"/>
</svg>
