<svg width="16" height="16" viewBox="0 0 16 16" fill="none" xmlns="http://www.w3.org/2000/svg">
<path d="M13.6568 2.34316C12.1458 0.832156 10.1369 0 8 0C5.86312 0 3.85416 0.832188 2.34316 2.34316C0.832156 3.85413 0 5.86312 0 8C0 10.1369 0.832156 12.1458 2.34316 13.6568C3.85413 15.1678 5.86312 16 8 16C10.1369 16 12.1458 15.1678 13.6568 13.6568C15.1678 12.1458 16 10.1369 16 8C16 5.86312 15.1678 3.85413 13.6568 2.34316ZM8 14.7074C4.30156 14.7074 1.29262 11.6984 1.29262 8C1.29262 4.30156 4.30156 1.29262 8 1.29262C11.6984 1.29262 14.7074 4.30156 14.7074 8C14.7074 11.6984 11.6984 14.7074 8 14.7074Z" transform="translate(0 16) scale(1 -1)" fill="#34495E"/>
<path d="M0.646312 -1.79291e-07C0.289375 -1.79291e-07 -2.13623e-07 0.289375 -2.13623e-07 0.646313V3.58778C-2.13623e-07 3.94475 0.289375 4.23409 0.646312 4.23409C1.00328 4.23409 1.29263 3.94475 1.29263 3.58778V0.646313C1.29263 0.289375 1.00328 -1.79291e-07 0.646312 -1.79291e-07Z" transform="translate(7.354 11.5879) scale(1 -1)" fill="#34495E"/>
<path d="M1.10337 0.189343C0.983 0.0689685 0.816406 7.6294e-09 0.646344 7.6294e-09C0.476281 7.6294e-09 0.309687 0.0689685 0.189313 0.189343C0.0689375 0.309687 4.19617e-08 0.476282 4.19617e-08 0.646344C4.19617e-08 0.816407 0.0689375 0.983032 0.189313 1.10338C0.309687 1.22375 0.476 1.29269 0.646344 1.29269C0.816688 1.29269 0.983 1.22378 1.10337 1.10338C1.22375 0.983032 1.29269 0.816407 1.29269 0.646344C1.29266 0.476282 1.22369 0.309656 1.10337 0.189343Z" transform="translate(7.35352 5.70508) scale(1 -1)" fill="#34495E"/>
</svg>
