<svg width="10" height="10" viewBox="0 0 10 10" fill="none" xmlns="http://www.w3.org/2000/svg">
<path d="M5 10C7.76339 10 10 7.75475 10 5C10 2.23661 7.75475 0 5 0C2.24525 0 -8.23553e-09 2.23661 -8.23553e-09 5C-8.23553e-09 7.75475 2.23661 10 5 10ZM5 0.699482C7.37478 0.699482 9.30052 2.62522 9.30052 5C9.30052 7.37478 7.37478 9.30052 5 9.30052C2.62522 9.30052 0.699482 7.36615 0.699482 5C0.699482 2.62522 2.62522 0.699482 5 0.699482Z" fill="#FF827D"/>
<path d="M0.354059 3.11744H2.02073C2.21934 3.11744 2.37478 2.962 2.37478 2.76338C2.37478 2.56477 2.21934 2.40933 2.02073 2.40933H0.708118V0.354059C0.708118 0.15544 0.552677 -1.31768e-07 0.354059 -1.31768e-07C0.15544 -1.31768e-07 6.58842e-08 0.15544 6.58842e-08 0.354059V2.76338C6.58842e-08 2.962 0.15544 3.11744 0.354059 3.11744Z" transform="translate(4.4126 2.46973)" fill="#FF827D"/>
</svg>
