<svg width="9" height="10" viewBox="0 0 9 10" fill="none" xmlns="http://www.w3.org/2000/svg">
<path d="M1.69105 3.42368e-08V0.516062H7.76324e-08V2.51617V3.1519V10H7.85632C8.48702 10 9 9.4529 9 8.7809V3.1519V2.51617V0.516062H7.30877V3.42368e-08H6.71246V0.516062H4.79825V3.42368e-08H4.20193V0.516062H2.28754V3.42368e-08H1.69105ZM8.40333 8.78109C8.40333 9.1025 8.15807 9.36427 7.85632 9.36427H0.596491V3.1519H8.40333V8.78109ZM4.20175 1.15179V1.69515H4.79807V1.15179H6.71228V1.69515H7.3086V1.15179H8.40316V2.51617H0.596491V1.15179H1.69105V1.69515H2.28754V1.15179H4.20175Z" fill="#147FB5"/>
<path d="M1.86404 2.79601e-07H-8.03094e-09V1.98665H1.86404V2.79601e-07ZM1.26754 1.35092H0.596491V0.635915H1.26754V1.35092Z" transform="translate(1.18164 3.89355)" fill="#147FB5"/>
<path d="M1.86404 2.79601e-07H5.88936e-08V1.98665H1.86404V2.79601e-07ZM1.26754 1.35092H0.596492V0.635915H1.26754V1.35092Z" transform="translate(3.56787 3.89355)" fill="#147FB5"/>
<path d="M1.86404 2.79601e-07H-2.08804e-07V1.98665H1.86404V2.79601e-07ZM1.26754 1.35092H0.596491V0.635915H1.26754V1.35092Z" transform="translate(5.9541 3.89355)" fill="#147FB5"/>
<path d="M1.86404 3.2525e-07H-8.03094e-09V1.98665H1.86404V3.2525e-07ZM1.26754 1.35073H0.596491V0.635354H1.26754V1.35073Z" transform="translate(1.18164 6.57129)" fill="#147FB5"/>
<path d="M1.86404 3.2525e-07H5.88936e-08V1.98665H1.86404V3.2525e-07ZM1.26754 1.35073H0.596492V0.635354H1.26754V1.35073Z" transform="translate(3.56787 6.57129)" fill="#147FB5"/>
<path d="M1.86404 3.2525e-07H-2.08804e-07V1.98665H1.86404V3.2525e-07ZM1.26754 1.35073H0.596491V0.635354H1.26754V1.35073Z" transform="translate(5.9541 6.57129)" fill="#147FB5"/>
</svg>
