<svg width="20" height="22" viewBox="0 0 20 22" fill="none" xmlns="http://www.w3.org/2000/svg">
<path d="M16.0527 5.05263C16.015 2.30558 13.6964 0 10.8379 0C9.01681 0 7.30681 0.948948 6.36271 2.31663C5.94798 2.05042 5.44972 1.89474 4.91379 1.89474C3.46652 1.89474 2.2931 3.02589 2.2931 4.42105C2.2931 4.46937 2.29769 4.51642 2.30064 4.56442C2.29736 4.62189 2.2931 4.68 2.2931 4.73684C0.98669 5.34063 0 6.77589 0 8.25947C0 10.3168 1.74603 12 3.88026 12C3.88026 12 5.24174 10.1721 7 10.1836C8.72949 10.1949 11.9975 11.9949 12.0421 11.9934C10.5 10.6836 11.9969 10 12.0421 10L15.3874 12C17.3742 12 19 10.4327 19 8.51747C19 6.82137 17.7244 5.3561 16.0527 5.05263Z" transform="translate(0.5 0.316406)" fill="#147FB5" fill-opacity="0.15"/>
<path d="M1.5 0L0 2.5M5 0L4 1.5M8 0L6.5 3M2.5 4L1 6.5" transform="translate(5.5 14)" stroke="#DCECF4" stroke-width="1.5" stroke-linecap="round" stroke-linejoin="round"/>
</svg>
