<svg width="10" height="13" viewBox="0 0 10 13" fill="none" xmlns="http://www.w3.org/2000/svg">
<path d="M9.53842 -1.27075e-07H0.461549C0.206619 -1.27075e-07 -9.03787e-08 0.198399 -9.03787e-08 0.443187V7.82944C-9.03787e-08 8.5626 0.621234 9.15897 1.38462 9.15897H8.61538C9.37892 9.15897 10 8.5626 10 7.82944V0.443161C9.99997 0.198399 9.79335 -1.27075e-07 9.53842 -1.27075e-07ZM9.0769 7.82941C9.0769 8.07374 8.86983 8.2726 8.61535 8.2726H1.38462C1.13017 8.2726 0.923072 8.07377 0.923072 7.82941V0.886348H9.0769V7.82941Z" transform="translate(0 3.84082)" fill="#147FB5"/>
<path d="M2.76921 0C1.24231 0 1.80757e-07 1.19288 1.80757e-07 2.65904V6.35218C1.80757e-07 6.59697 0.206619 6.79537 0.461549 6.79537C0.716478 6.79537 0.923098 6.59697 0.923098 6.35218V2.65904C0.923098 1.68154 1.75124 0.886348 2.76924 0.886348C3.78724 0.886348 4.61538 1.68154 4.61538 2.65904V6.35218C4.61538 6.59697 4.822 6.79537 5.07693 6.79537C5.33186 6.79537 5.53848 6.59697 5.53848 6.35218V2.65904C5.53843 1.19288 4.29615 0 2.76921 0Z" transform="translate(2.30811)" fill="#147FB5"/>
</svg>
