<svg width="16" height="16" viewBox="0 0 16 16" fill="none" xmlns="http://www.w3.org/2000/svg">
<path d="M15.435 14.8699H1.13006V0.56503C1.13006 0.248062 0.881998 0 0.56503 0C0.248062 0 1.31428e-08 0.248062 1.31428e-08 0.56503V15.435C1.31428e-08 15.7519 0.248062 16 0.56503 16H15.435C15.7519 16 16 15.7519 16 15.435C16 15.118 15.7519 14.8699 15.435 14.8699Z" fill="#34495E"/>
<path d="M1.13006 8.69595V0.56503C1.13006 0.248062 0.881998 0 0.56503 0C0.248062 0 -2.10285e-07 0.248062 -2.10285e-07 0.56503V8.69595C-2.10285e-07 9.01292 0.248062 9.26098 0.56503 9.26098C0.881998 9.26098 1.13006 9.01292 1.13006 8.69595Z" transform="translate(5.47119 3.99609)" fill="#34495E"/>
<path d="M1.13006 8.69595V0.56503C1.13006 0.248062 0.881998 0 0.56503 0C0.248062 0 -1.05142e-07 0.248062 -1.05142e-07 0.56503V8.69595C-1.05142e-07 9.01292 0.248062 9.26098 0.56503 9.26098C0.881998 9.26098 1.13006 9.01292 1.13006 8.69595Z" transform="translate(2.74268 3.99609)" fill="#34495E"/>
<path d="M1.13006 8.69595V0.56503C1.13006 0.248062 0.881999 0 0.565031 0C0.248062 0 -4.2057e-07 0.248062 -4.2057e-07 0.56503V8.69595C-4.2057e-07 9.01292 0.248062 9.26098 0.565031 9.26098C0.881999 9.26098 1.13006 9.01292 1.13006 8.69595Z" transform="translate(10.9287 3.99609)" fill="#34495E"/>
<path d="M1.13006 4.63049V0.56503C1.13006 0.248062 0.881998 0 0.56503 0C0.248062 0 0 0.248062 0 0.56503V4.63049C0 4.94746 0.248062 5.19552 0.56503 5.19552C0.881998 5.19552 1.13006 4.94746 1.13006 4.63049Z" transform="translate(13.6572 8.0625)" fill="#34495E"/>
<path d="M1.13006 4.63049V0.56503C1.13006 0.248062 0.881998 0 0.56503 0C0.248062 0 2.10285e-07 0.248062 2.10285e-07 0.56503V4.63049C2.10285e-07 4.94746 0.248062 5.19552 0.56503 5.19552C0.881998 5.19552 1.13006 4.94746 1.13006 4.63049Z" transform="translate(8.19971 8.0625)" fill="#34495E"/>
</svg>
