<svg width="14" height="14" viewBox="0 0 14 14" fill="none" xmlns="http://www.w3.org/2000/svg">
<g opacity="0.4">
<path d="M8.34628e-08 0.776562V1.55312C8.34628e-08 1.55312 -5.21643e-08 2.32969 0.776714 2.32969C1.55343 2.32969 1.55343 1.55312 1.55343 1.55312V0.776562C1.55343 0.776562 1.55343 0 0.776714 0C-5.21643e-08 0 8.34628e-08 0.776562 8.34628e-08 0.776562Z" transform="translate(6.22217)" fill="#FFAC33"/>
<path d="M1.55343 1.66893e-07H0.776714C0.776714 1.66893e-07 0 0 0 0.776562C0 1.55312 0.776714 1.55312 0.776714 1.55312H1.55343C1.55343 1.55312 2.33014 1.55312 2.33014 0.776562C2.33014 0 1.55343 1.66893e-07 1.55343 1.66893e-07Z" transform="translate(11.6699 6.22363)" fill="#FFAC33"/>
<path d="M0.773979 1.55312H1.55343C1.55343 1.55312 2.33014 1.55312 2.33014 0.776562C2.33014 0 1.55343 1.66893e-07 1.55343 1.66893e-07H0.776714C0.776714 1.66893e-07 0 0 0 0.776562C0 1.55312 0.773979 1.55312 0.773979 1.55312Z" transform="translate(0 6.22363)" fill="#FFAC33"/>
<path d="M0.794035 1.8931C0.794035 1.8931 1.34375 2.44271 1.89347 1.8931C2.44319 1.34349 1.89347 0.79388 1.89347 0.79388L1.34375 0.244271C1.34375 0.244271 0.794035 -0.305339 0.244318 0.244271C-0.305398 0.79388 0.244318 1.34349 0.244318 1.34349L0.794035 1.8931Z" transform="translate(1.65137 2.04492)" fill="#FFAC33"/>
<path d="M1.34375 0.244271C1.34375 0.244271 0.794035 -0.305339 0.244318 0.244271C-0.305399 0.79388 0.244318 1.34349 0.244318 1.34349L0.794035 1.8931C0.794035 1.8931 1.34375 2.44271 1.89347 1.8931C2.44319 1.34349 1.89347 0.79388 1.89347 0.79388L1.34375 0.244271Z" transform="translate(9.82031 10.209)" fill="#FFAC33"/>
<path d="M1.89347 0.244271C1.34375 -0.305339 0.794035 0.244271 0.794035 0.244271L0.244319 0.79388C0.244319 0.79388 -0.305398 1.34349 0.244319 1.8931C0.794035 2.44271 1.34375 1.8931 1.34375 1.8931L1.89347 1.34349C1.89347 1.34349 2.44319 0.79388 1.89347 0.244271Z" transform="translate(10.2085 2.04199)" fill="#FFAC33"/>
<path d="M0.244217 1.8931C0.793934 2.44271 1.34365 1.8931 1.34365 1.8931L1.8961 1.34349C1.8961 1.34349 2.44582 0.79388 1.8961 0.244271C1.34639 -0.305339 0.796669 0.244271 0.796669 0.244271L0.246952 0.79388C0.244217 0.79388 -0.305499 1.34349 0.244217 1.8931Z" transform="translate(2.03955 10.209)" fill="#FFAC33"/>
<path d="M1.55343 1.55313V0.776563C1.55343 0.776563 1.55343 -3.33786e-07 0.776714 -3.33786e-07C-5.21643e-08 -3.33786e-07 8.34628e-08 0.776563 8.34628e-08 0.776563V1.55313C8.34628e-08 1.55313 -5.21643e-08 2.32969 0.776714 2.32969C1.55343 2.32969 1.55343 1.55313 1.55343 1.55313Z" transform="translate(6.22217 11.6709)" fill="#FFAC33"/>
<path d="M3.88904 7.77656C6.0369 7.77656 7.77808 6.03572 7.77808 3.88828C7.77808 1.74084 6.0369 0 3.88904 0C1.74118 0 0 1.74084 0 3.88828C0 6.03572 1.74118 7.77656 3.88904 7.77656Z" transform="translate(3.10938 3.1123)" fill="#FFAC33"/>
</g>
</svg>
