<svg width="16" height="3" viewBox="0 0 16 3" version="1.1" xmlns="http://www.w3.org/2000/svg" xmlns:xlink="http://www.w3.org/1999/xlink">
<title>more</title>
<desc>Created using Figma</desc>
<g id="Canvas" transform="translate(-978 -6447)">
<g id="more">
<g id="Group">
<g id="Group">
<g id="Vector">
<use xlink:href="#path0_fill" transform="translate(978 6447)" fill="#147FB5" fill-opacity="0.3"/>
</g>
</g>
</g>
<g id="Group">
<g id="Group">
<g id="Vector">
<use xlink:href="#path1_fill" transform="translate(984.4 6447)" fill="#147FB5" fill-opacity="0.3"/>
</g>
</g>
</g>
<g id="Group">
<g id="Group">
<g id="Vector">
<use xlink:href="#path2_fill" transform="translate(990.8 6447)" fill="#147FB5" fill-opacity="0.3"/>
</g>
</g>
</g>
</g>
</g>
<defs>
<path id="path0_fill" d="M 1.60001 3C 2.48367 3 3.20002 2.32843 3.20002 1.5C 3.20002 0.671573 2.48367 0 1.60001 0C 0.71635 0 0 0.671573 0 1.5C 0 2.32843 0.71635 3 1.60001 3Z"/>
<path id="path1_fill" d="M 1.60001 3C 2.48367 3 3.20002 2.32843 3.20002 1.5C 3.20002 0.671573 2.48367 0 1.60001 0C 0.71635 0 0 0.671573 0 1.5C 0 2.32843 0.71635 3 1.60001 3Z"/>
<path id="path2_fill" d="M 1.60001 3C 2.48367 3 3.20002 2.32843 3.20002 1.5C 3.20002 0.671573 2.48367 0 1.60001 0C 0.71635 0 0 0.671573 0 1.5C 0 2.32843 0.71635 3 1.60001 3Z"/>
</defs>
</svg>
