<svg width="17" height="17" viewBox="0 0 17 17" version="1.1" xmlns="http://www.w3.org/2000/svg" xmlns:xlink="http://www.w3.org/1999/xlink">
<title>Group</title>
<desc>Created using Figma</desc>
<g id="Canvas" transform="translate(-978 -6969)">
<g id="Group">
<g id="Vector">
<use xlink:href="#path0_fill" transform="translate(978 6969)" fill="#B9D9E9"/>
</g>
</g>
</g>
<defs>
<path id="path0_fill" d="M 17 8.01279C 16.9625 8.01279 16.8875 8.01279 16.8501 8.05729C 16.8501 8.05729 16.8501 8.05729 16.8126 8.01279C 16.8126 8.01279 16.8126 8.01279 16.8126 8.05729C 15.5756 8.27974 13.9263 8.72465 12.8018 9.25855C 12.6144 9.34753 12.3895 9.481 12.2021 9.61448C 12.2396 9.43651 12.2771 9.25855 12.3146 9.12507C 12.3146 9.12507 12.3146 9.12507 12.3146 9.08058C 12.3146 9.03609 12.352 8.9916 12.352 8.94711C 12.352 8.94711 12.352 8.94711 12.352 8.90262C 12.352 8.85813 12.3895 8.85813 12.3895 8.81363C 12.9143 8.23525 13.1392 7.61238 13.0642 7.65687C 12.9143 7.70136 12.6144 7.92381 12.3146 7.70136C 12.1271 7.56788 11.9772 7.4789 11.7898 7.4789L 11.7523 7.4789C 11.3775 7.43441 11.0026 7.56788 10.6653 7.79034C 10.178 8.05729 9.76567 8.54669 9.39083 9.12507C 9.2409 8.76914 9.016 7.83483 7.44169 6.90052C 7.10434 6.72255 6.7295 6.54459 6.2797 6.32213C 6.0548 6.18866 5.8299 6.05519 5.67996 5.9662C 5.41758 5.83273 5.15519 5.65477 4.85532 5.43231C 3.73082 4.67596 3.05611 3.91961 2.60631 3.29674C 1.89412 2.22895 1.74419 1.33913 1.33187 0.538288C 0.957031 -0.084588 0.432261 0.00439418 0.469745 0.00439418C 0.507228 0.0488853 0.544712 0.0933764 0.582195 0.137868C 0.394778 0.22685 0.394777 1.69506 0.31981 1.91751C 0.132392 2.31793 0.0949089 2.80733 0.0949089 3.25225C -0.0175418 3.9641 -0.0925089 4.89842 0.244843 5.83273C 0.282327 6.45561 0.282327 7.03399 0.394778 7.61237L 0.357294 7.56788C 0.31981 7.56788 0.544712 9.83693 1.85664 10.6823C 2.41889 11.0382 3.20605 11.3941 4.14313 11.7056C 4.63042 11.8835 5.19267 12.017 5.75493 12.195C 6.54208 12.4174 6.87944 12.9068 7.02937 13.2183C 6.9544 13.2183 6.87944 13.2183 6.80447 13.1738C 6.65453 13.0848 6.0548 12.8623 5.30513 12.8178C 4.59294 12.7733 3.7683 12.9068 3.16856 13.5742C 2.90618 13.8856 2.79373 14.1971 2.75624 14.464C 2.75624 14.5085 2.75624 14.5975 2.75624 14.642C 2.75624 14.7754 2.79373 14.9089 2.86869 14.9979C 2.90618 15.0424 2.90618 15.1314 2.94366 15.1759C 2.94366 15.1759 2.94366 15.2204 2.98114 15.2204C 3.05611 15.3538 3.13108 15.4873 3.20605 15.6208C 3.24353 15.7987 3.24353 15.9767 3.28101 16.1547C 3.28101 16.1547 3.28101 16.1547 3.28101 16.1992C 3.61836 15.9767 3.95572 15.8432 4.33055 15.7542C 4.59294 16.1992 4.96777 16.5996 5.38009 16.911C 5.41758 16.9555 5.49254 17 5.53003 17L 5.56751 17C 5.64248 16.9555 5.71744 16.911 5.79241 16.8665C 5.94235 16.9555 6.16725 17 6.16725 17C 6.16725 17 6.01731 16.822 6.09228 16.5551C 6.20473 16.4216 6.2797 16.2881 6.35467 16.1102C 6.69202 15.7098 7.14182 15.3093 7.47917 15.0424C 7.77904 14.8644 8.07891 14.731 8.37878 14.5975C 9.09097 14.5085 9.65322 14.2416 10.103 13.8856L 10.1405 13.8411C 10.253 13.7966 10.5903 13.7521 10.7777 13.7077C 10.8152 13.6632 10.8902 13.6632 10.9277 13.6632C 11.4524 13.4852 12.0147 13.6187 12.5395 13.5297C 14.0763 13.2627 15.0509 12.4174 15.0883 11.7056C 15.2383 11.3941 15.5007 10.9937 15.8005 10.6378C 16.6626 9.92591 17.075 8.94711 16.9625 8.41321C 17 8.23525 17 8.14627 17 8.01279ZM 7.02937 15.1759C 7.10434 15.0869 7.21679 15.0424 7.32924 14.9534C 7.36672 14.9534 7.36672 14.9979 7.36672 14.9979C 7.25427 15.0424 7.14182 15.1314 7.02937 15.1759Z"/>
</defs>
</svg>
