<svg width="13" height="9" viewBox="0 0 13 9" version="1.1" xmlns="http://www.w3.org/2000/svg" xmlns:xlink="http://www.w3.org/1999/xlink">
<title>Group 2.5</title>
<desc>Created using Figma</desc>
<g id="Canvas" transform="translate(-1104 -8593)">
<g id="Group 2.5">
<g id="look">
<g id="Group">
<g id="Vector">
<use xlink:href="#path0_fill" transform="translate(1104 8593)" fill="#147FB5" fill-opacity="0.5"/>
</g>
<g id="Vector">
<use xlink:href="#path1_fill" transform="translate(1108.52 8595.41)" fill="#147FB5" fill-opacity="0.5"/>
</g>
</g>
</g>
</g>
</g>
<defs>
<path id="path0_fill" d="M 12.9698 4.32807C 12.9654 4.31612 12.9606 4.30436 12.9553 4.2928C 12.3788 3.02614 11.4816 1.9547 10.3609 1.19428C 9.20926 0.412941 7.87421 -4.07266e-08 6.50012 -4.07266e-08C 5.12602 -4.07266e-08 3.79091 0.413005 2.63931 1.1944C 1.52261 1.95203 0.62793 3.01851 0.0512001 4.27907C -0.013435 4.41005 -0.0182406 4.56841 0.0445924 4.7065C 0.621022 5.97335 1.51823 7.04498 2.63913 7.80553C 3.79079 8.58699 5.1259 9 6.50012 9C 7.87427 9 9.20938 8.587 10.361 7.8056C 11.4819 7.04511 12.379 5.97354 12.9555 4.70682C 13.0095 4.58817 13.0145 4.45084 12.9698 4.32807ZM 6.50012 8.0467C 4.18244 8.0467 2.02972 6.66203 0.954951 4.4999C 2.02972 2.33778 4.18244 0.953171 6.50012 0.953171C 8.81773 0.953171 10.9705 2.3379 12.0453 4.49997C 10.9705 6.6619 8.81767 8.0467 6.50012 8.0467Z"/>
<path id="path1_fill" d="M 1.97732 2.32723e-08C 0.887051 2.32723e-08 -1.09991e-08 0.938428 -1.09991e-08 2.09184C -1.09991e-08 3.24526 0.887051 4.18368 1.97732 4.18368C 3.06759 4.18368 3.95464 3.24526 3.95464 2.09184C 3.95464 0.938428 3.06759 2.32723e-08 1.97732 2.32723e-08ZM 1.97732 3.23045C 1.38389 3.23045 0.901047 2.71964 0.901047 2.09184C 0.901047 1.46404 1.38389 0.953235 1.97732 0.953235C 2.57075 0.953235 3.05359 1.46404 3.05359 2.09184C 3.05359 2.71964 2.57075 3.23045 1.97732 3.23045Z"/>
</defs>
</svg>
