<svg width="18" height="18" viewBox="0 0 18 18" version="1.1" xmlns="http://www.w3.org/2000/svg" xmlns:xlink="http://www.w3.org/1999/xlink">
<title>001-interface</title>
<desc>Created using Figma</desc>
<g id="Canvas" transform="translate(-1668 -4972)">
<g id="001-interface">
<g id="Group">
<g id="forum">
<g id="Vector">
<use xlink:href="#path0_fill" transform="translate(1668 4972)" fill="#FFFFFF"/>
</g>
</g>
</g>
</g>
</g>
<defs>
<path id="path0_fill" d="M 17.1 3.6L 15.3 3.6L 15.3 11.7L 3.6 11.7L 3.6 13.5C 3.6 14.04 3.96 14.4 4.5 14.4L 14.4 14.4L 18 18L 18 4.5C 18 3.96 17.64 3.6 17.1 3.6ZM 13.5 9L 13.5 0.9C 13.5 0.36 13.14 0 12.6 0L 0.9 0C 0.36 0 0 0.36 0 0.9L 0 13.5L 3.6 9.9L 12.6 9.9C 13.14 9.9 13.5 9.54 13.5 9Z"/>
</defs>
</svg>
