<svg width="15" height="18" viewBox="0 0 15 18" version="1.1" xmlns="http://www.w3.org/2000/svg" xmlns:xlink="http://www.w3.org/1999/xlink">
<title>Vector</title>
<desc>Created using Figma</desc>
<g id="Canvas" transform="translate(-1700 -4972)">
<g id="Vector">
<use xlink:href="#path0_fill" transform="translate(1700 4972)" fill="#FFFFFF"/>
</g>
</g>
<defs>
<path id="path0_fill" d="M 14.662 13.1705L 13.3682 11.909C 12.9355 11.487 12.6923 10.9147 12.6923 10.318L 12.6923 6.36087C 12.6923 3.9309 10.9951 1.78443 8.64032 1.25533C 8.64555 1.21205 8.65384 1.16962 8.65384 1.125C 8.65384 0.504528 8.13634 0 7.5 0C 6.86366 0 6.34616 0.504564 6.34616 1.125C 6.34616 1.16884 6.35442 1.2105 6.35943 1.25308C 4.0414 1.76056 2.30768 3.77421 2.30768 6.18744L 2.30768 10.318C 2.30768 10.9147 2.06455 11.487 1.63178 11.909L 0.337967 13.1705C 0.12155 13.3814 1.9807e-08 13.6676 1.9807e-08 13.966L 1.9807e-08 13.9668C 1.9807e-08 14.641 0.560514 15.1875 1.25192 15.1875L 5.19232 15.1875L 5.19232 15.75C 5.19232 16.9926 6.22551 18 7.5 18C 8.77449 18 9.80768 16.9926 9.80768 15.75L 9.80768 15.1875L 13.7481 15.1875C 14.4395 15.1875 15 14.641 15 13.9668L 15 13.966C 15 13.6676 14.8784 13.3814 14.662 13.1705Z"/>
</defs>
</svg>
