<svg width="12" height="18" viewBox="0 0 12 18" version="1.1" xmlns="http://www.w3.org/2000/svg" xmlns:xlink="http://www.w3.org/1999/xlink">
<title>003-technology</title>
<desc>Created using Figma</desc>
<g id="Canvas" transform="translate(-1731 -4972)">
<g id="003-technology">
<g id="Group">
<g id="Vector">
<use xlink:href="#path0_fill" transform="translate(1731 4972)" fill="#FFFFFF"/>
</g>
<g id="Vector">
<use xlink:href="#path1_fill" transform="translate(1734.14 4987.41)" fill="#FFFFFF"/>
</g>
</g>
</g>
</g>
<defs>
<path id="path0_fill" d="M 6.00039 1.20569e-07C 2.69176 1.20569e-07 -2.80683e-08 2.79097 -2.80683e-08 6.22156C -2.80683e-08 7.62703 0.443972 8.95395 1.28402 10.0591C 1.44918 10.2764 1.62926 10.4931 1.80335 10.7026C 2.32859 11.3345 2.87163 11.988 3.06668 12.73C 3.08928 12.8163 3.09592 13.0351 3.09329 13.1558C 3.08823 13.375 3.16667 13.582 3.31403 13.7384C 3.46138 13.8949 3.65906 13.9811 3.8706 13.9811L 8.09649 13.9811C 8.30803 13.9811 8.5057 13.895 8.65313 13.7384C 8.80048 13.582 8.87886 13.3751 8.87393 13.156C 8.8717 13.0523 8.87873 12.868 8.90133 12.7835C 9.09907 12.0433 9.70452 11.3057 10.2387 10.655C 10.4081 10.4486 10.5682 10.2536 10.7154 10.0602C 11.5558 8.95491 12 7.62757 12 6.22156C 11.9999 2.79097 9.30851 1.20569e-07 6.00039 1.20569e-07Z"/>
<path id="path1_fill" d="M 4.99288 -3.99125e-07L 0.722654 -3.99125e-07C 0.324209 -3.99125e-07 -3.44839e-07 0.336159 -3.44839e-07 0.74929L -3.44839e-07 1.83917C -3.44839e-07 2.2523 0.324209 2.58846 0.722654 2.58846L 4.99288 2.58846C 5.39133 2.58846 5.71554 2.2523 5.71554 1.83917L 5.71554 0.74929C 5.71554 0.336159 5.39139 -3.99125e-07 4.99288 -3.99125e-07Z"/>
</defs>
</svg>
