<svg width="22" height="19" viewBox="0 0 22 19" version="1.1" xmlns="http://www.w3.org/2000/svg" xmlns:xlink="http://www.w3.org/1999/xlink">
<title>mask</title>
<desc>Created using Figma</desc>
<g id="Canvas" transform="translate(-743 -5605)">
<g id="mask">
<g id="Group">
<g id="Group">
<g id="Vector">
<use xlink:href="#path0_fill" transform="translate(743 5605)" fill="#147FB5"/>
</g>
</g>
</g>
<g id="Group">
<g id="Group">
<g id="Vector">
<use xlink:href="#path1_fill" transform="translate(755.069 5615.69)" fill="#147FB5"/>
</g>
</g>
</g>
<g id="Group">
<g id="Group">
<g id="Vector">
<use xlink:href="#path2_fill" transform="translate(745.238 5615.69)" fill="#147FB5"/>
</g>
</g>
</g>
</g>
</g>
<defs>
<path id="path0_fill" d="M 21.5948 9.40298C 19.51 8.56745 17.2137 8.12559 15.3373 8.16302C 15.3372 8.16302 15.3371 8.16302 15.337 8.16302C 16.2869 6.90666 16.4536 5.42447 16.4611 5.354L 16.5444 4.5611L 15.7526 4.64457C 15.6854 4.65167 14.3324 4.80402 13.1179 5.64605C 13.1192 5.59958 13.1196 5.55312 13.1196 5.50665C 13.1196 2.87786 11.5822 0.78214 11.5169 0.694371L 11 -1.313e-08L 10.4831 0.694414C 10.4178 0.782183 8.88035 2.8779 8.88035 5.50669C 8.88035 5.55307 8.88078 5.59949 8.88207 5.64588C 7.66769 4.80402 6.3149 4.65171 6.24774 4.64461L 5.45587 4.56114L 5.53927 5.35408C 5.54671 5.42452 5.71338 6.90675 6.66329 8.16306C 4.78689 8.12524 2.49034 8.56753 0.405195 9.40302L 0 9.56518L 0 15.512L 0.0244922 15.5985C 0.034375 15.6338 0.278008 16.4753 0.979687 17.3053C 1.63281 18.0784 2.8209 19 4.77039 19C 6.73449 19 7.68883 18.1434 8.53059 17.3874C 9.22367 16.7649 9.82352 16.2262 11 16.0971C 12.1765 16.2262 12.7763 16.7649 13.4694 17.3874C 14.3112 18.1434 15.2655 19 17.2296 19C 19.1791 19 20.3672 18.0784 21.0203 17.3053C 21.722 16.4753 21.9656 15.6338 21.9755 15.5985L 22 15.512L 22 9.56518L 21.5948 9.40298ZM 12.6482 8.10993L 12.6861 8.12757C 12.8261 7.82515 12.9265 7.63825 13.1185 7.39421C 13.2006 7.28988 13.2882 7.19097 13.3786 7.10036C 13.8565 6.62184 14.4537 6.33263 14.9454 6.16126C 14.7738 6.65488 14.4848 7.25404 14.0085 7.73101C 13.5257 8.21435 12.9218 8.5042 12.427 8.67492C 12.503 8.49775 12.5773 8.309 12.6482 8.10993ZM 11.0013 2.33407C 11.3811 3.07667 11.8306 4.22629 11.8306 5.50669C 11.8306 6.77935 11.3803 7.93155 11 8.67716C 10.6197 7.93155 10.1694 6.77935 10.1694 5.50669C 10.1694 4.23231 10.621 3.07926 11.0013 2.33407ZM 8.62159 7.10032C 8.71213 7.19097 8.79966 7.28984 8.88177 7.39421C 9.07375 7.63816 9.17413 7.82506 9.31408 8.12752L 9.3518 8.11001C 9.42262 8.309 9.49691 8.4977 9.57288 8.67479C 9.07818 8.50403 8.47443 8.21426 7.9918 7.73101C 7.51343 7.25198 7.22451 6.65346 7.05341 6.16079C 7.54566 6.33211 8.14331 6.62137 8.62159 7.10032ZM 20.7109 15.3206C 20.5614 15.7456 19.7347 17.7093 17.2296 17.7093C 15.7588 17.7093 15.0966 17.1147 14.3301 16.4263C 13.5661 15.7405 12.7007 14.9635 11.0614 14.806L 11 14.8L 10.9386 14.806C 9.2993 14.9635 8.43391 15.7405 7.66992 16.4263C 6.90336 17.1147 6.24121 17.7093 4.77039 17.7093C 2.26145 17.7093 1.43602 15.7396 1.28906 15.321L 1.28906 10.4446C 4.14691 9.3819 6.64555 9.31306 7.9548 9.59143C 8.78496 9.76826 9.59922 10.0737 10.3748 10.5001L 10.786 10.726L 11 10.8434L 11.214 10.726L 11.6252 10.5001C 12.0132 10.2871 12.4102 10.1038 12.8146 9.9524C 13.2189 9.80053 13.6301 9.67963 14.0452 9.59143C 15.3545 9.31263 17.8531 9.3819 20.7109 10.4446L 20.7109 15.3206Z"/>
<path id="path1_fill" d="M 7.24281 1.26469C 6.04098 0.266521 4.8082 -0.143931 3.57758 0.0445157C 1.56106 0.353431 0.355352 2.18455 0.305079 2.26199L 2.09808e-07 2.73354L 0.424102 3.10097C 0.488125 3.15647 1.88805 4.35083 3.67469 4.35083C 3.84141 4.35083 4.01156 4.3405 4.1843 4.3177C 5.41793 4.1555 6.48828 3.4172 7.36441 2.12388L 7.69313 1.63857L 7.24281 1.26469ZM 4.02445 3.03686C 3.13242 3.15733 2.29496 2.78474 1.78191 2.4797C 2.19012 2.04386 2.89051 1.4527 3.78082 1.31933C 4.47348 1.21564 5.1932 1.40753 5.92582 1.89026C 5.35648 2.55843 4.71883 2.9435 4.02445 3.03686Z"/>
<path id="path2_fill" d="M 7.38805 2.26185C 7.33777 2.1844 6.13207 0.353287 4.11555 0.0443714C 2.88535 -0.143645 1.65215 0.266377 0.450313 1.26454L 7.86781e-08 1.63842L 0.328711 2.12374C 1.20484 3.41705 2.2752 4.15535 3.50883 4.31755C 3.68156 4.34036 3.85172 4.35068 4.01844 4.35068C 5.80465 4.35068 7.205 3.15633 7.26902 3.10082L 7.69312 2.7334L 7.38805 2.26185ZM 3.67684 3.03801C 2.97945 2.94594 2.33879 2.56087 1.7673 1.89012C 2.49992 1.40738 3.21965 1.2155 3.9123 1.31918C 4.80176 1.45256 5.50215 2.04285 5.91035 2.47869C 5.39731 2.78244 4.56156 3.15417 3.67684 3.03801Z"/>
</defs>
</svg>
