<svg width="20" height="19" viewBox="0 0 20 19" version="1.1" xmlns="http://www.w3.org/2000/svg" xmlns:xlink="http://www.w3.org/1999/xlink">
<title>microphone</title>
<desc>Created using Figma</desc>
<g id="Canvas" transform="translate(-831 -5565)">
<g id="microphone">
<g id="Group">
<g id="Group">
<g id="Vector">
<use xlink:href="#path0_fill" transform="translate(831.979 5565.08)" fill="#147FB5"/>
</g>
</g>
</g>
<g id="Group">
<g id="Group">
<g id="Vector">
<use xlink:href="#path1_fill" transform="matrix(0.708386 -0.705812 0.708386 0.705812 839.887 5575.26)" fill="#147FB5"/>
</g>
</g>
</g>
</g>
</g>
<defs>
<path id="path0_fill" d="M 17.4108 1.49856C 16.441 0.532183 15.1514 0 13.7798 0C 13.7797 0 13.7799 0 13.7798 0C 12.4083 0 11.1186 0.532257 10.1488 1.49856C 9.17889 2.46491 8.64477 3.7498 8.64477 5.1164C 8.64477 5.30707 8.65556 5.49608 8.67606 5.68292L 0.621421 15.5113L 1.58889 16.4829L 0 18.066L 0.782973 18.8462L 2.36876 17.2661L 3.33176 18.2332L 13.2084 10.2013C 13.3968 10.2219 13.5875 10.2328 13.7798 10.2328C 15.1514 10.2328 16.441 9.70062 17.4108 8.73423C 18.3807 7.76789 18.9149 6.48308 18.9149 5.1164C 18.9149 3.7498 18.3807 2.46494 17.4108 1.49856ZM 3.41007 16.7454L 2.10979 15.4396L 2.72788 14.6854L 4.17594 16.1226L 3.41007 16.7454ZM 5.03831 15.4213L 3.43161 13.8266L 9.01047 7.0192C 9.26538 7.65378 9.64907 8.23636 10.1488 8.73423C 10.6478 9.23152 11.2317 9.61345 11.8677 9.86743L 5.03831 15.4213ZM 13.7798 9.12956C 12.7039 9.12956 11.6925 8.71211 10.9317 7.95414C 10.171 7.19618 9.75199 6.18838 9.75199 5.1164C 9.75199 4.23063 10.0383 3.38877 10.567 2.69537L 16.2097 8.31759C 15.5137 8.84429 14.6688 9.12956 13.7798 9.12956ZM 16.9927 7.53747L 11.3499 1.91524C 12.0459 1.38854 12.8908 1.10324 13.7798 1.10324C 14.8557 1.10327 15.8671 1.52069 16.6279 2.27869C 17.3886 3.0367 17.8076 4.04445 17.8076 5.1164C 17.8076 6.0022 17.5213 6.84402 16.9927 7.53747Z"/>
<path id="path1_fill" d="M 1.39167 0L 0 0L 0 1.10525L 1.39167 1.10525L 1.39167 0Z"/>
</defs>
</svg>
