<svg width="24" height="19" viewBox="0 0 24 19" version="1.1" xmlns="http://www.w3.org/2000/svg" xmlns:xlink="http://www.w3.org/1999/xlink">
<title>swimming-pool</title>
<desc>Created using Figma</desc>
<g id="Canvas" transform="translate(-742 -5565)">
<g id="swimming-pool">
<g id="Group">
<g id="Group">
<g id="Vector">
<use xlink:href="#path0_fill" transform="translate(746.015 5578.49)" fill="#147FB5"/>
</g>
</g>
</g>
<g id="Group">
<g id="Group">
<g id="Vector">
<use xlink:href="#path1_fill" transform="translate(746.015 5581.8)" fill="#147FB5"/>
</g>
</g>
</g>
<g id="Group">
<g id="Group">
<g id="Vector">
<use xlink:href="#path2_fill" transform="translate(742.755 5565.08)" fill="#147FB5"/>
</g>
</g>
</g>
</g>
</g>
<defs>
<path id="path0_fill" d="M 16.0127 0.290499L 15.3146 0.6916C 15.0584 0.838886 14.741 0.837172 14.4865 0.687116L 13.8341 0.302678C 13.1566 -0.0965772 12.3122 -0.101063 11.6302 0.290806L 10.933 0.691556C 10.6768 0.838842 10.3594 0.837128 10.1048 0.687072L 9.45249 0.302634C 8.77502 -0.0965336 7.93058 -0.101063 7.24863 0.290762L 6.55142 0.691513C 6.29523 0.838887 5.97785 0.837083 5.72327 0.687027L 5.07088 0.302589C 4.39341 -0.0965779 3.54893 -0.101106 2.86697 0.290719L 2.16972 0.691469C 1.91348 0.838755 1.5961 0.836996 1.34157 0.687072L 0.693528 0.30514L -3.28561e-08 1.43546L 0.648086 1.81744C 1.32511 2.2163 2.169 2.22087 2.85051 1.82931L 3.54772 1.42856C 3.8044 1.28101 4.12232 1.28272 4.37735 1.43304L 5.02974 1.81748C 5.70676 2.21638 6.5507 2.22091 7.23221 1.82935L 7.92942 1.4286C 8.1861 1.2811 8.50402 1.28281 8.75901 1.43309L 9.4114 1.81753C 9.75341 2.01907 10.138 2.11997 10.5228 2.11997C 10.8997 2.11997 11.2767 2.02315 11.6139 1.8294L 12.3111 1.42865C 12.5678 1.2811 12.8857 1.28286 13.1407 1.43309L 13.7931 1.81757C 14.4702 2.21647 15.3141 2.22104 15.9956 1.8294L 16.6935 1.42821L 16.0127 0.290499Z"/>
<path id="path1_fill" d="M 16.0127 0.290477L 15.3146 0.691623C 15.0584 0.838953 14.741 0.837194 14.4864 0.687138L 13.8341 0.302744C 13.1566 -0.096467 12.3121 -0.10104 11.6302 0.290872L 10.933 0.691579C 10.6768 0.838953 10.3594 0.837281 10.1048 0.687094L 9.45244 0.3027C 8.77493 -0.0965113 7.9304 -0.101129 7.24858 0.290828L 6.55133 0.691535C 6.29514 0.838909 5.97776 0.837238 5.72313 0.687051L 5.07079 0.302656C 4.39327 -0.0965556 3.54879 -0.101172 2.86693 0.290785L 2.16968 0.691491C 1.91339 0.838821 1.5961 0.837062 1.34148 0.687006L 0.693439 0.305118L -3.28561e-08 1.43553L 0.647996 1.81737C 1.32502 2.21645 2.16896 2.22098 2.85042 1.82929L 3.54767 1.42858C 3.80445 1.28112 4.12232 1.28283 4.37735 1.43307L 5.0297 1.81742C 5.70672 2.2165 6.55061 2.22102 7.23212 1.82933L 7.92937 1.42862C 8.1861 1.28116 8.50398 1.28288 8.759 1.43311L 9.41131 1.81746C 9.75336 2.01909 10.1379 2.11999 10.5227 2.11995C 10.8995 2.11995 11.2766 2.02313 11.6138 1.82937L 12.311 1.42867C 12.5678 1.28112 12.8857 1.28292 13.1407 1.43315L 13.793 1.8175C 14.4701 2.21658 15.314 2.22111 15.9955 1.82942L 16.6934 1.42827L 16.0127 0.290477Z"/>
<path id="path2_fill" d="M 15.5743 6.52864L 15.5743 2.53895C 15.5743 1.13894 14.4122 -8.18459e-08 12.9838 -8.18459e-08C 11.5553 -8.18459e-08 10.3932 1.13894 10.3932 2.53895L 10.3932 3.89086L 11.739 3.89086L 11.739 2.53895C 11.739 1.86622 12.2974 1.31898 12.9838 1.31898C 13.6701 1.31898 14.2285 1.86622 14.2285 2.53895L 14.2285 6.52864L 9.22523 6.52864L 9.22523 2.53895C 9.22523 1.13894 8.0631 -8.18459e-08 6.63468 -8.18459e-08C 5.20626 -8.18459e-08 4.04413 1.13898 4.04413 2.53895L 4.04413 3.89086L 5.38992 3.89086L 5.38992 2.53895C 5.38992 1.86622 5.94829 1.31898 6.63464 1.31898C 7.32099 1.31898 7.8794 1.86622 7.8794 2.53895L 7.8794 6.52864L 0 6.52864L 0 7.84762L 7.87944 7.84762L 7.87944 12.6616L 9.22523 12.6616L 9.22523 10.6833L 14.2285 10.6833L 14.2285 12.6616L 15.5743 12.6616L 15.5743 7.84762L 22.9681 7.84762L 22.9681 6.52864L 15.5743 6.52864ZM 14.2285 9.36436L 9.22523 9.36436L 9.22523 7.84762L 14.2285 7.84762L 14.2285 9.36436Z"/>
</defs>
</svg>
