<svg width="4" height="7" viewBox="0 0 4 7" version="1.1" xmlns="http://www.w3.org/2000/svg" xmlns:xlink="http://www.w3.org/1999/xlink">
<title>if_question_1814114</title>
<desc>Created using Figma</desc>
<g id="Canvas" transform="translate(-719 -5826)">
<g id="if_question_1814114">
<g id="Group">
<g id="Icon Question">
<g id="Fill 48">
<use xlink:href="#path0_fill" transform="translate(719 5826)" fill="#147FB5"/>
</g>
</g>
</g>
</g>
</g>
<defs>
<path id="path0_fill" d="M 0.111554 1.3834C 0.213881 1.07905 0.341792 0.830036 0.520865 0.63636C 0.699938 0.442684 0.930173 0.276682 1.18599 0.16601C 1.44181 0.0553377 1.74879 0 2.08136 0C 2.33718 0 2.593 0.055336 2.82323 0.13834C 3.05347 0.221344 3.25812 0.35968 3.4372 0.49802C 3.61627 0.63636 3.74418 0.857706 3.84651 1.07905C 3.94884 1.30039 4 1.57708 4 1.88142C 4 2.26878 3.92325 2.57312 3.76976 2.8498C 3.61627 3.12648 3.41162 3.3755 3.18138 3.62451C 2.97672 3.84585 2.82323 4.01186 2.7209 4.12253C 2.59299 4.2332 2.51625 4.37154 2.46509 4.48221C 2.41392 4.59288 2.36276 4.73122 2.36276 4.89723C 2.33718 5.06324 2.33718 5.17391 2.33718 5.47826L 1.7488 5.47826C 1.7488 5.17391 1.7488 5.03557 1.79996 4.8419C 1.82554 4.62055 1.90229 4.45454 1.97903 4.26087C 2.05578 4.09486 2.18369 3.92886 2.3116 3.76285C 2.46509 3.59684 2.61858 3.43083 2.82323 3.23715C 3.00231 3.07115 3.1558 2.87747 3.25813 2.65613C 3.38603 2.43478 3.4372 2.18577 3.4372 1.93676C 3.4372 1.74308 3.41162 1.54941 3.33487 1.3834C 3.25813 1.21739 3.1558 1.07905 3.05347 0.94071C 2.95114 0.80237 2.79765 0.719366 2.61858 0.66403C 2.46509 0.608694 2.28601 0.55336 2.10694 0.55336C 1.85112 0.55336 1.62088 0.608696 1.44181 0.6917C 1.23716 0.774704 1.08367 0.913042 0.955756 1.07905C 0.827847 1.24506 0.725518 1.43874 0.674354 1.66008C 0.62319 1.88142 0.57203 2.0751 0.597612 2.32411L 0.00922765 2.32411C -0.0163542 1.93676 0.00922608 1.68775 0.111554 1.3834ZM 1.64647 6.2253L 2.36276 6.2253L 2.36276 7L 1.64647 7L 1.64647 6.2253Z"/>
</defs>
</svg>
