<svg width="19" height="20" viewBox="0 0 19 20" version="1.1" xmlns="http://www.w3.org/2000/svg" xmlns:xlink="http://www.w3.org/1999/xlink">
<title>puzzle</title>
<desc>Created using Figma</desc>
<g id="Canvas" transform="translate(-875 -5564)">
<g id="puzzle">
<g id="Group">
<g id="Group">
<g id="Vector">
<use xlink:href="#path0_fill" transform="translate(875 5564)" fill="#147FB5"/>
</g>
</g>
</g>
</g>
</g>
<defs>
<path id="path0_fill" d="M 18.0968 13.5496C 17.7771 13.7856 17.3999 13.9103 17.0059 13.9103C 15.9732 13.9103 15.1329 13.0471 15.1329 11.9862C 15.1329 10.9253 15.9732 10.0621 17.0059 10.0621C 17.4 10.0621 17.7772 10.1869 18.0968 10.4228L 19 11.0894L 19 3.97246L 14.3284 3.97246C 14.4093 3.69059 14.4509 3.39617 14.4509 3.09594C 14.4509 1.38883 13.0989 0 11.4371 0C 9.77531 0 8.42338 1.38883 8.4233 3.09594C 8.4233 3.39617 8.46483 3.69055 8.54578 3.97246L 3.87417 3.97246L 3.87417 8.96473C 3.59761 8.88019 3.30869 8.83684 3.01377 8.83684C 1.35197 8.83684 5.65721e-09 10.2257 5.65721e-09 11.9328C 5.65721e-09 13.6399 1.35197 15.0287 3.01377 15.0287C 3.30869 15.0287 3.59761 14.9854 3.87417 14.9008L 3.87417 20L 10.564 20L 9.91516 19.0722C 9.68549 18.7438 9.56411 18.3563 9.56411 17.9516C 9.56411 16.8906 10.4043 16.0275 11.4371 16.0275C 12.4699 16.0275 13.3101 16.8906 13.3101 17.9516C 13.3101 18.3563 13.1887 18.7438 12.959 19.0722L 12.3102 20L 19 20L 19 12.8831L 18.0968 13.5496ZM 17.8593 18.8281L 14.3284 18.8281C 14.4093 18.5462 14.4509 18.2518 14.4508 17.9516C 14.4508 16.2445 13.0988 14.8556 11.437 14.8556C 9.77523 14.8556 8.42326 16.2445 8.42326 17.9516C 8.42326 18.2518 8.46479 18.5462 8.54574 18.8281L 5.01491 18.8281L 5.01491 12.8193L 4.11005 13.4921C 3.7893 13.7307 3.41018 13.8568 3.01373 13.8568C 1.98095 13.8568 1.14073 12.9937 1.14073 11.9327C 1.14073 10.8718 1.98095 10.0087 3.01373 10.0087C 3.41018 10.0087 3.78926 10.1348 4.11005 10.3733L 5.01491 11.0462L 5.01491 5.14434L 10.564 5.14434L 9.91516 4.21652C 9.68545 3.88812 9.56407 3.50062 9.56407 3.0959C 9.56407 2.03496 10.4043 1.17184 11.4371 1.17184C 12.4698 1.17184 13.3101 2.03496 13.3101 3.0959C 13.3101 3.50062 13.1887 3.88812 12.959 4.21652L 12.3102 5.14434L 17.8593 5.14434L 17.8593 9.01609C 17.5849 8.93293 17.2983 8.89027 17.006 8.89027C 15.3442 8.89027 13.9922 10.2791 13.9922 11.9862C 13.9922 13.6933 15.3442 15.0821 17.006 15.0821C 17.2983 15.0821 17.5848 15.0395 17.8593 14.9563L 17.8593 18.8281Z"/>
</defs>
</svg>
