<svg width="15" height="14" viewBox="0 0 15 14" version="1.1" xmlns="http://www.w3.org/2000/svg" xmlns:xlink="http://www.w3.org/1999/xlink">
<title>if_General_-_Office_58_1471097</title>
<desc>Created using Figma</desc>
<g id="Canvas" transform="translate(-1026 -5658)">
<g id="if_General_-_Office_58_1471097">
<g id="Group">
<g id="Vector">
<use xlink:href="#path0_fill" transform="translate(1026 5658)" fill="#34495E"/>
</g>
</g>
</g>
</g>
<defs>
<path id="path0_fill" d="M 12.5349 -1.12625e-07L 7.72596 -1.12625e-07L 4.49699 -1.12625e-07L 2.46458 -1.12625e-07L 2.46512 1.09551L -3.66139e-08 1.09551L -3.66139e-08 3.93945C -3.66139e-08 5.3583 1.09259 6.51257 2.43606 6.51257L 2.49285 6.51257C 2.49764 6.51257 2.50324 6.51144 2.50804 6.51144C 2.78825 8.83673 4.57324 10.4532 7.04662 10.6067L 7.04662 13.0348L 4.95023 13.0348L 4.95023 14L 10.049 14L 10.049 13.0348L 7.95311 13.0348L 7.95311 10.6067C 10.4225 10.4532 12.2053 8.8407 12.4898 6.51144C 12.4952 6.51144 12.5008 6.51257 12.5066 6.51257L 12.5634 6.51257C 13.9069 6.51257 15 5.3583 15 3.93945L 15 1.09551L 12.5338 1.09551L 12.5349 -1.12625e-07ZM 2.46458 5.54737L 2.43606 5.54737C 1.59249 5.54737 0.906756 4.82602 0.906756 3.93945L 0.906756 2.06099L 2.46485 2.06099L 2.46485 5.54737L 2.46458 5.54737ZM 5.40348 0.965204L 6.82 0.965204L 6.82 4.84021L 5.40348 4.84021L 5.40348 0.965204ZM 11.6228 5.96524C 11.5732 8.13979 9.90393 9.658 7.56412 9.658L 7.43508 9.658C 5.13713 9.658 3.48998 8.19316 3.3844 6.09157L 3.37081 1.1801L 3.37081 0.96492L 4.49725 0.96492L 4.49725 5.80542L 7.72622 5.80542L 7.72622 0.965204L 11.6287 0.965204L 11.6228 5.96524ZM 12.5349 2.06099L 14.093 2.06099L 14.093 3.93945C 14.093 4.82602 13.4067 5.54737 12.5631 5.54737L 12.5351 5.54737L 12.5351 2.06099L 12.5349 2.06099Z"/>
</defs>
</svg>
