<svg width="20" height="19" viewBox="0 0 20 19" version="1.1" xmlns="http://www.w3.org/2000/svg" xmlns:xlink="http://www.w3.org/1999/xlink">
<title>christmas-star</title>
<desc>Created using Figma</desc>
<g id="Canvas" transform="translate(-697 -6121)">
<g id="christmas-star">
<g id="Group">
<g id="Group">
<g id="Vector">
<use xlink:href="#path0_fill" transform="translate(700.598 6124.45)" fill="#1A3C72"/>
</g>
<g id="Vector">
<use xlink:href="#path1_fill" transform="translate(706.131 6121)" fill="#1A3C72"/>
</g>
<g id="Vector">
<use xlink:href="#path2_fill" transform="translate(711.221 6123.69)" fill="#1A3C72"/>
</g>
<g id="Vector">
<use xlink:href="#path3_fill" transform="translate(713.307 6130.12)" fill="#1A3C72"/>
</g>
<g id="Vector">
<use xlink:href="#path4_fill" transform="translate(711.166 6135.2)" fill="#1A3C72"/>
</g>
<g id="Vector">
<use xlink:href="#path5_fill" transform="translate(706.054 6137.29)" fill="#1A3C72"/>
</g>
<g id="Vector">
<use xlink:href="#path6_fill" transform="translate(699.636 6135.15)" fill="#1A3C72"/>
</g>
<g id="Vector">
<use xlink:href="#path7_fill" transform="translate(697 6130.04)" fill="#1A3C72"/>
</g>
<g id="Vector">
<use xlink:href="#path8_fill" transform="translate(699.691 6123.63)" fill="#1A3C72"/>
</g>
</g>
</g>
</g>
</g>
<defs>
<path id="path0_fill" d="M 9.1711 7.27425L 11.78 4.73436C 11.8944 4.62307 11.9356 4.45653 11.8862 4.30485C 11.8368 4.15318 11.7055 4.04262 11.5475 4.01968L 7.942 3.49653L 6.32955 0.233531C 6.25886 0.0906053 6.11313 2.23762e-08 5.95335 2.23762e-08C 5.79367 2.23762e-08 5.64783 0.090553 5.57714 0.233531L 3.9647 3.49653L 0.359205 4.01968C 0.201201 4.04262 0.0698903 4.15318 0.0205438 4.30485C -0.0288027 4.45653 0.0123628 4.62302 0.126683 4.73436L 2.73565 7.27425L 2.11974 10.8605C 2.09273 11.0178 2.15744 11.1766 2.28665 11.2704C 2.41582 11.3641 2.58709 11.3765 2.72847 11.3022L 5.95335 9.60898L 9.17823 11.3022C 9.23958 11.3344 9.30655 11.3504 9.37346 11.3504C 9.46041 11.3504 9.54699 11.3233 9.62009 11.2704C 9.74925 11.1766 9.81396 11.0178 9.78696 10.8605L 9.1711 7.27425ZM 6.14864 8.76478C 6.08759 8.73278 6.02052 8.71665 5.95345 8.71665C 5.88638 8.71665 5.81931 8.73278 5.75822 8.76478L 3.09052 10.1654L 3.59997 7.19878C 3.62331 7.06282 3.57821 6.92419 3.47931 6.82787L 1.32112 4.72688L 4.30367 4.29412C 4.44028 4.27427 4.55843 4.18858 4.61952 4.06493L 5.95335 1.36573L 7.28722 4.06493C 7.34837 4.18858 7.46646 4.27432 7.60307 4.29412L 10.5856 4.72688L 8.42749 6.82787C 8.32853 6.92419 8.28349 7.06282 8.30682 7.19878L 8.81628 10.1654L 6.14864 8.76478Z"/>
<path id="path1_fill" d="M 0.419524 2.71418C 0.651258 2.71418 0.839048 2.52658 0.839048 2.2952L 0.839048 0.418984C 0.839048 0.1876 0.651311 2.48761e-12 0.419524 2.48761e-12C 0.187842 2.48761e-12 -1.15226e-07 0.1876 -1.15226e-07 0.418984L -1.15226e-07 2.2952C -1.15226e-07 2.52658 0.187842 2.71418 0.419524 2.71418Z"/>
<path id="path2_fill" d="M 0.419537 2.16463C 0.526882 2.16463 0.634228 2.12373 0.71614 2.04192L 2.04456 0.715206C 2.20844 0.551593 2.20844 0.286323 2.04456 0.12271C 1.88069 -0.0409033 1.61513 -0.0409033 1.45125 0.12271L 0.122829 1.44942C -0.040943 1.61304 -0.040943 1.87831 0.122829 2.04192C 0.204741 2.12373 0.312086 2.16463 0.419537 2.16463Z"/>
<path id="path3_fill" d="M 2.29815 2.55728e-07L 0.419524 2.55728e-07C 0.187842 2.55728e-07 3.84086e-08 0.1876 3.84086e-08 0.418984C 3.84086e-08 0.650473 0.187842 0.837969 0.419524 0.837969L 2.29815 0.837969C 2.52983 0.837969 2.71768 0.650473 2.71768 0.418984C 2.71768 0.1876 2.52983 2.55728e-07 2.29815 2.55728e-07Z"/>
<path id="path4_fill" d="M 0.71622 0.12275C 0.552343 -0.0409157 0.286783 -0.0409157 0.122907 0.12275C -0.0409699 0.286311 -0.0409699 0.551632 0.122907 0.715193L 1.45133 2.04191C 1.53324 2.12366 1.64059 2.16467 1.74793 2.16467C 1.85538 2.16467 1.96273 2.12376 2.04464 2.04191C 2.20841 1.87835 2.20841 1.61302 2.04464 1.44946L 0.71622 0.12275Z"/>
<path id="path5_fill" d="M 0.419524 4.09164e-07C 0.187842 4.09164e-07 5.12114e-08 0.187601 5.12114e-08 0.418985L 5.12114e-08 2.29509C 5.12114e-08 2.52647 0.187842 2.71407 0.419524 2.71407C 0.651259 2.71407 0.839048 2.52647 0.839048 2.29509L 0.839048 0.418985C 0.838996 0.187601 0.651259 4.09164e-07 0.419524 4.09164e-07Z"/>
<path id="path6_fill" d="M 1.45133 0.122743L 0.122907 1.44935C -0.0409692 1.61302 -0.0409692 1.87823 0.122907 2.0419C 0.204819 2.12365 0.312165 2.16456 0.419563 2.16456C 0.526909 2.16456 0.634307 2.12365 0.716219 2.0419L 2.04464 0.715238C 2.20852 0.551677 2.20852 0.286356 2.04464 0.122795C 1.88082 -0.0409226 1.61521 -0.040923 1.45133 0.122743Z"/>
<path id="path7_fill" d="M 2.29815 -6.39319e-09L 0.419524 -6.39319e-09C 0.187842 -6.39319e-09 0 0.1876 0 0.418984C 0 0.650368 0.187842 0.837968 0.419524 0.837968L 2.29815 0.837968C 2.52983 0.837968 2.71768 0.650368 2.71768 0.418984C 2.71768 0.187548 2.52989 -6.39319e-09 2.29815 -6.39319e-09Z"/>
<path id="path8_fill" d="M 1.45128 2.04192C 1.53319 2.12373 1.64054 2.16463 1.74793 2.16463C 1.85533 2.16463 1.96268 2.12373 2.04459 2.04192C 2.20847 1.87831 2.20847 1.61304 2.04459 1.44942L 0.716167 0.12271C 0.552342 -0.0409034 0.286732 -0.0409034 0.122907 0.12271C -0.0409691 0.286323 -0.0409691 0.551593 0.122907 0.715206L 1.45128 2.04192Z"/>
</defs>
</svg>
