<svg width="12" height="10" viewBox="0 0 12 10" version="1.1" xmlns="http://www.w3.org/2000/svg" xmlns:xlink="http://www.w3.org/1999/xlink">
<title>Group</title>
<desc>Created using Figma</desc>
<g id="Canvas" transform="translate(-605 -8111)">
<g id="Group">
<g id="Group 5.1">
<g id="Vector 2">
<use xlink:href="#path0_stroke" transform="translate(609 8115)" fill="#147FB5"/>
</g>
</g>
<g id="folder (1)">
<g id="Group">
<g id="Vector">
<use xlink:href="#path1_fill" transform="translate(605 8111)" fill="#147FB5"/>
</g>
</g>
</g>
</g>
</g>
<defs>
<path id="path0_stroke" d="M 1.33333 2L 0.959629 2.33218L 1.26528 2.67604L 1.63333 2.4L 1.33333 2ZM -0.373705 0.832182L 0.959629 2.33218L 1.70704 1.66782L 0.373705 0.167818L -0.373705 0.832182ZM 1.63333 2.4L 4.3 0.4L 3.7 -0.4L 1.03333 1.6L 1.63333 2.4Z"/>
<path id="path1_fill" d="M 0.423773 10L 11.5762 10C 11.814 10 12 9.81964 12 9.58918L 12 1.63327C 12 1.40281 11.814 1.22244 11.5762 1.22244L 6.19122 1.22244L 5.18863 0.140281C 5.10594 0.0501002 4.99225 3.82234e-08 4.87855 3.82234e-08L 0.423773 3.82234e-08C 0.186047 3.82234e-08 9.8571e-09 0.180361 9.8571e-09 0.410822L 9.8571e-09 9.58918C 9.8571e-09 9.81964 0.196382 10 0.423773 10ZM 0.847545 0.831663L 4.69251 0.831663L 5.69509 1.91383C 5.77778 2.00401 5.89147 2.05411 6.00517 2.05411L 11.1628 2.05411L 11.1628 9.1984L 0.847545 9.1984L 0.847545 0.831663Z"/>
</defs>
</svg>
