<svg width="14" height="13" viewBox="0 0 14 13" version="1.1" xmlns="http://www.w3.org/2000/svg" xmlns:xlink="http://www.w3.org/1999/xlink">
<title>if_General_-_Office_23_1471069</title>
<desc>Created using Figma</desc>
<g id="Canvas" transform="translate(-1026 -5621)">
<g id="if_General_-_Office_23_1471069">
<g id="Group">
<g id="Vector">
<use xlink:href="#path0_fill" transform="translate(1026 5621)" fill="#34495E"/>
</g>
</g>
</g>
</g>
<defs>
<path id="path0_fill" d="M 13.969 2.17621C 13.9647 2.16445 13.9601 2.15425 13.955 2.14301C 13.9488 2.12969 13.945 2.11584 13.9378 2.10303C 13.9207 2.07376 13.8992 2.04815 13.8766 2.0241C 13.8746 2.02201 13.8731 2.0194 13.8713 2.01757C 13.8352 1.98072 13.7927 1.9538 13.7474 1.93237C 13.7379 1.92715 13.7279 1.92375 13.7179 1.91983C 13.6696 1.90127 13.6184 1.88794 13.5651 1.88794L 9.502 1.88794L 9.502 0.444022C 9.502 0.198882 9.30697 9.57068e-08 9.06689 9.57068e-08L 4.93336 9.57068e-08C 4.69303 9.57068e-08 4.498 0.198882 4.498 0.444022L 4.498 1.88794L 0.435108 1.88794C 0.383407 1.88794 0.333754 1.90049 0.286916 1.918C 0.275654 1.92218 0.264904 1.92636 0.254155 1.93185C 0.20834 1.95328 0.165853 1.98046 0.129765 2.01679C 0.128997 2.01705 0.128229 2.01757 0.127461 2.01809C 0.125414 2.02018 0.12439 2.02358 0.122342 2.02567C 0.100331 2.04945 0.0793433 2.07454 0.0624509 2.10303C 0.0545166 2.11662 0.0504216 2.13125 0.0442789 2.14511C 0.03916 2.15634 0.0342966 2.16706 0.0299455 2.17882C 0.0125412 2.22691 0.00153576 2.27682 0.00102386 2.32752C 0.00102386 2.32909 1.52312e-07 2.3304 1.52312e-07 2.33197L 1.52312e-07 12.556C 1.52312e-07 12.8011 0.195031 13 0.435108 13L 12.3317 13C 13.2516 13 14 12.2358 14 11.2966L 14 2.33249C 14 2.33092 13.999 2.32935 13.999 2.32778C 13.9985 2.2763 13.9872 2.22534 13.969 2.17621ZM 5.36822 0.888044L 8.63153 0.888044L 8.63153 1.88768L 5.36822 1.88768L 5.36822 0.888044ZM 12.8416 2.77677L 11.1275 6.07858L 8.47105 6.07858L 5.5292 6.07858L 2.87223 6.07858L 1.15816 2.77651L 12.8416 2.77677ZM 7.94022 6.96715C 7.77513 7.32911 7.41578 7.58079 6.99987 7.58079C 6.58396 7.58079 6.22512 7.32911 6.06004 6.96715L 7.94022 6.96715ZM 13.1298 11.2968C 13.1298 11.7461 12.772 12.1114 12.332 12.1114L 0.870217 12.1114L 0.870217 4.11903L 2.22596 6.7309C 2.30198 6.87647 2.44966 6.96715 2.61065 6.96715L 5.14912 6.96715C 5.34697 7.82593 6.09945 8.46909 6.99987 8.46909C 7.9008 8.46909 8.65328 7.82593 8.85113 6.96715L 11.3893 6.96715C 11.5506 6.96715 11.6983 6.8762 11.774 6.7309L 13.1298 4.11903L 13.1298 11.2968Z"/>
</defs>
</svg>
