<svg width="15" height="12" viewBox="0 0 15 12" version="1.1" xmlns="http://www.w3.org/2000/svg" xmlns:xlink="http://www.w3.org/1999/xlink">
<title>Group 2</title>
<desc>Created using Figma</desc>
<g id="Canvas" transform="translate(-1455 -6090)">
<g id="Group 2">
<g id="Rectangle">
<mask id="mask0_outline_ins">
<use xlink:href="#path0_fill" fill="white" transform="translate(1455.9 6090.5)"/>
</mask>
<g mask="url(#mask0_outline_ins)">
<use xlink:href="#path1_stroke_2x" transform="translate(1455.9 6090.5)" fill="#147FB5"/>
</g>
</g>
<g id="Ellipse 3">
<mask id="mask1_outline_ins">
<use xlink:href="#path2_fill" fill="white" transform="translate(1459.85 6094)"/>
</mask>
<g mask="url(#mask1_outline_ins)">
<use xlink:href="#path3_stroke_2x" transform="translate(1459.85 6094)" fill="#147FB5"/>
</g>
</g>
</g>
</g>
<defs>
<path id="path0_fill" d="M 0 1.5L 3.45498 1.5L 4.44212 0L 9.37781 0L 10.365 1.5L 13.8199 1.5L 13.8199 11.5L 0 11.5L 0 1.5Z"/>
<path id="path1_stroke_2x" d="M 0 1.5L 0 0.75L -0.75 0.75L -0.75 1.5L 0 1.5ZM 13.8199 1.5L 14.5699 1.5L 14.5699 0.75L 13.8199 0.75L 13.8199 1.5ZM 13.8199 11.5L 13.8199 12.25L 14.5699 12.25L 14.5699 11.5L 13.8199 11.5ZM 0 11.5L -0.75 11.5L -0.75 12.25L 0 12.25L 0 11.5ZM 3.45498 1.5L 3.45498 2.25L 3.85925 2.25L 4.08149 1.9123L 3.45498 1.5ZM 10.365 1.5L 9.73845 1.9123L 9.96068 2.25L 10.365 2.25L 10.365 1.5ZM 4.44212 0L 4.44212 -0.75L 4.03786 -0.75L 3.81562 -0.412299L 4.44212 0ZM 9.37781 0L 10.0043 -0.412299L 9.78208 -0.75L 9.37781 -0.75L 9.37781 0ZM 13.0699 1.5L 13.0699 11.5L 14.5699 11.5L 14.5699 1.5L 13.0699 1.5ZM 13.8199 10.75L 0 10.75L 0 12.25L 13.8199 12.25L 13.8199 10.75ZM 0.75 11.5L 0.75 1.5L -0.75 1.5L -0.75 11.5L 0.75 11.5ZM 0 2.25L 3.45498 2.25L 3.45498 0.75L 0 0.75L 0 2.25ZM 10.365 2.25L 13.8199 2.25L 13.8199 0.75L 10.365 0.75L 10.365 2.25ZM 4.08149 1.9123L 5.06863 0.412299L 3.81562 -0.412299L 2.82848 1.0877L 4.08149 1.9123ZM 4.44212 0.75L 9.37781 0.75L 9.37781 -0.75L 4.44212 -0.75L 4.44212 0.75ZM 8.75131 0.412299L 9.73845 1.9123L 10.9915 1.0877L 10.0043 -0.412299L 8.75131 0.412299Z"/>
<path id="path2_fill" d="M 5.92283 3C 5.92283 4.65685 4.59696 6 2.96141 6C 1.32587 6 0 4.65685 0 3C 0 1.34315 1.32587 0 2.96141 0C 4.59696 0 5.92283 1.34315 5.92283 3Z"/>
<path id="path3_stroke_2x" d="M 5.17283 3C 5.17283 4.25182 4.17362 5.25 2.96141 5.25L 2.96141 6.75C 5.0203 6.75 6.67283 5.06188 6.67283 3L 5.17283 3ZM 2.96141 5.25C 1.74921 5.25 0.75 4.25182 0.75 3L -0.75 3C -0.75 5.06188 0.902533 6.75 2.96141 6.75L 2.96141 5.25ZM 0.75 3C 0.75 1.74818 1.74921 0.75 2.96141 0.75L 2.96141 -0.75C 0.902533 -0.75 -0.75 0.938115 -0.75 3L 0.75 3ZM 2.96141 0.75C 4.17362 0.75 5.17283 1.74818 5.17283 3L 6.67283 3C 6.67283 0.938115 5.0203 -0.75 2.96141 -0.75L 2.96141 0.75Z"/>
</defs>
</svg>
