<svg width="16" height="17" viewBox="0 0 16 17" version="1.1" xmlns="http://www.w3.org/2000/svg" xmlns:xlink="http://www.w3.org/1999/xlink">
<title>home</title>
<desc>Created using Figma</desc>
<g id="Canvas" transform="translate(-677 -6095)">
<g id="home">
<g id="Group">
<g id="Vector">
<use xlink:href="#path0_fill" transform="translate(677.001 6095)" fill="#1A3C72"/>
</g>
<g id="Vector">
<use xlink:href="#path1_fill" transform="translate(677 6096.87)" fill="#1A3C72"/>
</g>
</g>
</g>
</g>
<defs>
<path id="path0_fill" d="M 0.701956 5.211L 6.3041 0.986957L 11.9062 5.211C 11.9852 5.27058 12.0778 5.29937 12.1697 5.29937C 12.3025 5.29937 12.4337 5.23922 12.5199 5.125C 12.6656 4.93178 12.627 4.65707 12.4338 4.51136L 6.56788 0.0883464C 6.41176 -0.0294488 6.19637 -0.0294488 6.04025 0.0883464L 0.174392 4.51136C -0.0188439 4.65707 -0.0573408 4.93178 0.0883215 5.125C 0.233984 5.31815 0.50872 5.35664 0.701956 5.211Z"/>
<path id="path1_fill" d="M 14.7176 9.85376C 15.2542 9.18999 15.3699 8.29063 15.0195 7.50662C 14.6738 6.73288 13.9677 6.24561 13.1308 6.20318C 13.088 6.20099 13.0449 6.19986 13.0016 6.19986C 12.8677 6.19986 12.7366 6.21157 12.6083 6.23184L 12.6083 4.86118C 12.6083 4.72367 12.5437 4.59417 12.4339 4.51136L 6.56795 0.0883463C 6.41183 -0.0294488 6.19643 -0.0294488 6.04032 0.0883463L 0.174394 4.51136C 0.0645997 4.59417 -1.00291e-08 4.72367 -1.00291e-08 4.86118L -1.00291e-08 12.308C -1.00291e-08 12.55 0.196178 12.7461 0.438176 12.7461L 9.47424 12.7461L 10.586 14.1214C 10.6692 14.2243 10.7945 14.2842 10.9268 14.2842C 11.0591 14.2842 11.1844 14.2243 11.2676 14.1214L 12.5081 12.5868C 12.5082 12.5867 12.5083 12.5866 12.5084 12.5865L 14.7176 9.85376ZM 0.876415 5.07962L 6.30416 0.987019L 11.7319 5.07962L 11.7319 6.54611C 11.4117 6.73445 11.1361 6.99082 10.9268 7.29645C 10.4737 6.63486 9.71267 6.19992 8.85191 6.19992C 8.80859 6.19992 8.76559 6.20105 8.7229 6.20318C 7.88585 6.24561 7.1797 6.73288 6.83398 7.50662C 6.48369 8.29057 6.59937 9.18999 7.13601 9.85376L 8.7659 11.8699L 0.876415 11.8699L 0.876415 5.07962ZM 7.81756 9.30291C 7.4893 8.89682 7.41901 8.34552 7.63415 7.86408C 7.84266 7.39747 8.26632 7.10373 8.76746 7.07832C 8.79544 7.07694 8.82361 7.07619 8.85197 7.07619C 9.75443 7.07619 10.4887 7.81031 10.4887 8.71274C 10.4887 8.95472 10.6849 9.15087 10.9269 9.15087C 11.1689 9.15087 11.365 8.95472 11.365 8.71274C 11.365 7.81038 12.0992 7.07619 13.0017 7.07619C 13.03 7.07619 13.0582 7.07694 13.0863 7.07838C 13.5874 7.10379 14.011 7.39753 14.2195 7.86414C 14.4346 8.34558 14.3643 8.89688 14.0361 9.30297L 10.9269 13.1491L 7.81756 9.30291Z"/>
</defs>
</svg>
