<svg width="15" height="16" viewBox="0 0 15 16" version="1.1" xmlns="http://www.w3.org/2000/svg" xmlns:xlink="http://www.w3.org/1999/xlink">
<title>if_General_-_Office_41_1471113</title>
<desc>Created using Figma</desc>
<g id="Canvas" transform="translate(-1326 -6333)">
<g id="if_General_-_Office_41_1471113">
<g id="Group">
<g id="Vector">
<use xlink:href="#path0_fill" transform="translate(1326 6333)" fill="#147FB5"/>
</g>
<g id="Vector">
<use xlink:href="#path1_fill" transform="translate(1327.97 6339.23)" fill="#147FB5"/>
</g>
<g id="Vector">
<use xlink:href="#path2_fill" transform="translate(1331.95 6339.23)" fill="#147FB5"/>
</g>
<g id="Vector">
<use xlink:href="#path3_fill" transform="translate(1335.92 6339.23)" fill="#147FB5"/>
</g>
<g id="Vector">
<use xlink:href="#path4_fill" transform="translate(1327.97 6343.51)" fill="#147FB5"/>
</g>
<g id="Vector">
<use xlink:href="#path5_fill" transform="translate(1331.95 6343.51)" fill="#147FB5"/>
</g>
<g id="Vector">
<use xlink:href="#path6_fill" transform="translate(1335.92 6343.51)" fill="#147FB5"/>
</g>
</g>
</g>
</g>
<defs>
<path id="path0_fill" d="M 2.81842 5.47789e-08L 2.81842 0.825699L 1.29387e-07 0.825699L 1.29387e-07 4.02588L 1.29387e-07 5.04304L 1.29387e-07 16L 13.0939 16C 14.145 16 15 15.1246 15 14.0494L 15 5.04304L 15 4.02588L 15 0.825699L 12.1813 0.825699L 12.1813 5.47789e-08L 11.1874 5.47789e-08L 11.1874 0.825699L 7.99708 0.825699L 7.99708 5.47789e-08L 7.00322 5.47789e-08L 7.00322 0.825699L 3.81257 0.825699L 3.81257 5.47789e-08L 2.81842 5.47789e-08ZM 14.0056 14.0497C 14.0056 14.564 13.5968 14.9828 13.0939 14.9828L 0.994152 14.9828L 0.994152 5.04304L 14.0056 5.04304L 14.0056 14.0497ZM 7.00292 1.84286L 7.00292 2.71224L 7.99678 2.71224L 7.99678 1.84286L 11.1871 1.84286L 11.1871 2.71224L 12.181 2.71224L 12.181 1.84286L 14.0053 1.84286L 14.0053 4.02588L 0.994152 4.02588L 0.994152 1.84286L 2.81842 1.84286L 2.81842 2.71224L 3.81257 2.71224L 3.81257 1.84286L 7.00292 1.84286Z"/>
<path id="path1_fill" d="M 3.10673 4.47361e-07L -1.33849e-08 4.47361e-07L -1.33849e-08 3.17864L 3.10673 3.17864L 3.10673 4.47361e-07ZM 2.11257 2.16147L 0.994152 2.16147L 0.994152 1.01746L 2.11257 1.01746L 2.11257 2.16147Z"/>
<path id="path2_fill" d="M 3.10673 4.47361e-07L 9.8156e-08 4.47361e-07L 9.8156e-08 3.17864L 3.10673 3.17864L 3.10673 4.47361e-07ZM 2.11257 2.16147L 0.994153 2.16147L 0.994153 1.01746L 2.11257 1.01746L 2.11257 2.16147Z"/>
<path id="path3_fill" d="M 3.10673 4.47361e-07L -3.48007e-07 4.47361e-07L -3.48007e-07 3.17864L 3.10673 3.17864L 3.10673 4.47361e-07ZM 2.11257 2.16147L 0.994152 2.16147L 0.994152 1.01746L 2.11257 1.01746L 2.11257 2.16147Z"/>
<path id="path4_fill" d="M 3.10673 5.204e-07L -1.33849e-08 5.204e-07L -1.33849e-08 3.17864L 3.10673 3.17864L 3.10673 5.204e-07ZM 2.11257 2.16118L 0.994152 2.16118L 0.994152 1.01657L 2.11257 1.01657L 2.11257 2.16118Z"/>
<path id="path5_fill" d="M 3.10673 5.204e-07L 9.8156e-08 5.204e-07L 9.8156e-08 3.17864L 3.10673 3.17864L 3.10673 5.204e-07ZM 2.11257 2.16118L 0.994153 2.16118L 0.994153 1.01657L 2.11257 1.01657L 2.11257 2.16118Z"/>
<path id="path6_fill" d="M 3.10673 5.204e-07L -3.48007e-07 5.204e-07L -3.48007e-07 3.17864L 3.10673 3.17864L 3.10673 5.204e-07ZM 2.11257 2.16118L 0.994152 2.16118L 0.994152 1.01657L 2.11257 1.01657L 2.11257 2.16118Z"/>
</defs>
</svg>
