<svg width="3" height="12" viewBox="0 0 3 12" version="1.1" xmlns="http://www.w3.org/2000/svg" xmlns:xlink="http://www.w3.org/1999/xlink">
<title>i</title>
<desc>Created using Figma</desc>
<g id="Canvas" transform="translate(-611 -5492)">
<g id="i">
<use xlink:href="#path0_fill" transform="translate(611.584 5492)" fill="#147FB5"/>
</g>
</g>
<defs>
<path id="path0_fill" d="M 1.72762 4.5L 1.72762 12L 0.303933 12L 0.303933 4.5L 1.72762 4.5ZM 2.03155 1.05278C 2.03155 1.19534 2.00223 1.32968 1.94357 1.45579C 1.89025 1.57642 1.8156 1.68609 1.71962 1.78478C 1.62898 1.878 1.51967 1.95202 1.39169 2.00685C 1.26905 2.06169 1.13842 2.0891 0.99978 2.0891C 0.861144 2.0891 0.730506 2.06169 0.607866 2.00685C 0.490559 1.95202 0.386582 1.878 0.295935 1.78478C 0.205288 1.68609 0.133304 1.57642 0.0799824 1.45579C 0.0266608 1.32968 0 1.19534 0 1.05278C 0 0.910212 0.0266608 0.775874 0.0799824 0.64976C 0.133304 0.518163 0.205288 0.405757 0.295935 0.312543C 0.386582 0.213845 0.490559 0.13708 0.607866 0.0822481C 0.730506 0.027416 0.861144 0 0.99978 0C 1.13842 0 1.26905 0.027416 1.39169 0.0822481C 1.51967 0.13708 1.62898 0.213845 1.71962 0.312543C 1.8156 0.405757 1.89025 0.518163 1.94357 0.64976C 2.00223 0.775874 2.03155 0.910212 2.03155 1.05278Z"/>
</defs>
</svg>
