<svg width="18" height="16" viewBox="0 0 18 16" version="1.1" xmlns="http://www.w3.org/2000/svg" xmlns:xlink="http://www.w3.org/1999/xlink">
<title>&#209;&#129;&#209;&#130;&#208;&#176;&#209;&#130;&#209;&#131;&#209;&#129; &#208;&#184;&#208;&#186;&#208;&#190;&#208;&#189;&#208;&#186;&#208;&#176;</title>
<desc>Created using Figma</desc>
<g id="Canvas" transform="translate(-605 -5405)">
<g id="&#209;&#129;&#209;&#130;&#208;&#176;&#209;&#130;&#209;&#131;&#209;&#129; &#208;&#184;&#208;&#186;&#208;&#190;&#208;&#189;&#208;&#186;&#208;&#176;">
<clipPath id="clip-0" clip-rule="evenodd">
<path d="M 607.343 5405L 620.829 5407.33L 618.486 5420.25L 605 5417.92L 607.343 5405Z" fill="#FFFFFF"/>
</clipPath>
<g id="Artboard 1" clip-path="url(#clip-0)">
</g>
<g id="Vector 3">
<use xlink:href="#path0_stroke" transform="matrix(1 -2.48699e-09 -6.12509e-09 1 608.914 5405.86)" fill="#147FB5"/>
</g>
<g id="Ellipse">
<mask id="mask0_outline_ins">
<use xlink:href="#path1_fill" fill="white" transform="translate(605 5416.43)"/>
</mask>
<g mask="url(#mask0_outline_ins)">
<use xlink:href="#path2_stroke_2x" transform="translate(605 5416.43)" fill="#147FB5"/>
</g>
</g>
</g>
</g>
<defs>
<path id="path0_stroke" d="M 1.58648 7.63574L 2.1835 7.69544L 2.23122 7.2182L 1.77621 7.06653L 1.58648 7.63574ZM 3.96563 2.54834L 3.82674 3.13205L 4.56563 3.30786L 4.56563 2.54834L 3.96563 2.54834ZM 9.42737 1.62825L 8.96192 2.00686L 9.35017 2.48417L 9.81757 2.08404L 9.42737 1.62825ZM 12.3189 5.92209L 11.8212 5.58696L 11.6025 5.91181L 11.8118 6.24281L 12.3189 5.92209ZM 9.08649 9.63574L 9.23201 9.05366L 8.79105 8.94342L 8.56554 9.33806L 9.08649 9.63574ZM 1.77621 7.06653C 1.19913 6.87417 0.868424 6.50677 0.711769 6.08197C 0.54932 5.64146 0.562566 5.10213 0.760821 4.58781C 1.14832 3.58256 2.2094 2.74722 3.82674 3.13205L 4.10451 1.96464C 1.85494 1.42937 0.226464 2.63773 -0.358871 4.1562C -0.647033 4.90375 -0.691024 5.74628 -0.414113 6.49717C -0.131407 7.26378 0.473849 7.89732 1.39674 8.20495L 1.77621 7.06653ZM 4.56563 2.54834C 4.56563 2.35608 4.66623 2.02077 4.9152 1.65576C 5.15672 1.30167 5.49743 0.980767 5.89302 0.788886C 6.27898 0.601679 6.72011 0.534194 7.20781 0.676133C 7.70418 0.820596 8.30463 1.19883 8.96192 2.00686L 9.89283 1.24963C 9.12967 0.311436 8.33719 -0.244964 7.54315 -0.476061C 6.74044 -0.709681 5.99369 -0.593654 5.36932 -0.290808C 4.75459 0.00736606 4.26252 0.483058 3.92385 0.979577C 3.59263 1.46518 3.36562 2.0345 3.36562 2.54834L 4.56563 2.54834ZM 9.81757 2.08404C 9.94381 1.97597 10.2718 1.85836 10.7524 1.87629C 11.211 1.89341 11.6894 2.03211 12.0469 2.28363C 12.3894 2.5245 12.6198 2.86362 12.6513 3.3397C 12.6843 3.83962 12.5028 4.57482 11.8212 5.58696L 12.8166 6.25723C 13.5807 5.12244 13.9056 4.12342 13.8486 3.26064C 13.7901 2.37403 13.3343 1.722 12.7373 1.3021C 12.1555 0.892848 11.4412 0.701167 10.7972 0.677129C 10.1751 0.653912 9.4905 0.784373 9.03718 1.17245L 9.81757 2.08404ZM 11.8118 6.24281C 11.9425 6.44945 12.0641 6.79984 12.1028 7.21117C 12.1411 7.61867 12.0927 8.02969 11.943 8.36368C 11.7994 8.68405 11.5614 8.94183 11.1763 9.08624C 10.7762 9.23628 10.1585 9.28528 9.23201 9.05366L 8.94097 10.2178C 10.0145 10.4862 10.8967 10.4727 11.5977 10.2098C 12.3136 9.94131 12.7776 9.43573 13.0381 8.85439C 13.2925 8.28667 13.3501 7.65763 13.2975 7.0988C 13.2453 6.54379 13.0791 6.00156 12.826 5.60138L 11.8118 6.24281ZM 8.56554 9.33806C 7.70189 10.8494 5.96485 11.503 4.50824 11.2333C 3.79035 11.1003 3.1661 10.7476 2.74552 10.1889C 2.32774 9.63398 2.07082 8.82226 2.1835 7.69544L 0.989453 7.57604C 0.852138 8.94923 1.15772 10.075 1.78682 10.9107C 2.41312 11.7426 3.32012 12.2337 4.28973 12.4132C 6.20812 12.7685 8.47108 11.922 9.60743 9.93343L 8.56554 9.33806Z"/>
<path id="path1_fill" d="M 4.68234 2.28571C 4.68234 3.54808 3.63416 4.57143 2.34117 4.57143C 1.04818 4.57143 0 3.54808 0 2.28571C 0 1.02335 1.04818 0 2.34117 0C 3.63416 0 4.68234 1.02335 4.68234 2.28571Z"/>
<path id="path2_stroke_2x" d="M 3.68234 2.28571C 3.68234 2.97333 3.10461 3.57143 2.34117 3.57143L 2.34117 5.57143C 4.16371 5.57143 5.68234 4.12283 5.68234 2.28571L 3.68234 2.28571ZM 2.34117 3.57143C 1.57773 3.57143 1 2.97333 1 2.28571L -1 2.28571C -1 4.12283 0.518627 5.57143 2.34117 5.57143L 2.34117 3.57143ZM 1 2.28571C 1 1.5981 1.57773 1 2.34117 1L 2.34117 -1C 0.518627 -1 -1 0.448601 -1 2.28571L 1 2.28571ZM 2.34117 1C 3.10461 1 3.68234 1.5981 3.68234 2.28571L 5.68234 2.28571C 5.68234 0.448601 4.16371 -1 2.34117 -1L 2.34117 1Z"/>
</defs>
</svg>
