<svg width="11" height="11" viewBox="0 0 11 11" version="1.1" xmlns="http://www.w3.org/2000/svg" xmlns:xlink="http://www.w3.org/1999/xlink">
<title>if_General_-_Office_07_1471122 (1)</title>
<desc>Created using Figma</desc>
<g id="Canvas" transform="translate(-606 -6337)">
<g id="if_General_-_Office_07_1471122 (1)">
<g id="Group">
<g id="Vector">
<use xlink:href="#path0_fill" transform="translate(606 6337)" fill="#147FB5"/>
</g>
</g>
</g>
</g>
<defs>
<path id="path0_fill" d="M 0.259156 9.57559L 5.408 10.9875C 5.43815 10.9956 5.46933 11 5.50031 11C 5.53087 11 5.56205 10.9956 5.5922 10.9875L 10.741 9.57559C 10.8939 9.53386 11 9.39435 11 9.23511L 11 0.352736C 11 0.24291 10.9488 0.139106 10.8621 0.0722552C 10.7753 0.00582014 10.6615 -0.0163944 10.5566 0.0122557L 5.5001 1.39867L 0.443354 0.0122557C 0.339278 -0.0163944 0.225084 0.00582014 0.137942 0.0722552C 0.051212 0.139106 -6.61694e-08 0.24291 -6.61694e-08 0.352736L -6.61694e-08 9.23511C 0.000206433 9.39435 0.106141 9.53386 0.259156 9.57559ZM 5.85115 2.03396L 10.2977 0.814667L 10.2977 8.96563L 5.85115 10.1847L 5.85115 2.03396ZM 0.702304 0.814875L 5.14885 2.03396L 5.14885 10.1847L 0.702304 8.96563L 0.702304 0.814875Z"/>
</defs>
</svg>
