<svg width="14" height="11" viewBox="0 0 14 11" version="1.1" xmlns="http://www.w3.org/2000/svg" xmlns:xlink="http://www.w3.org/1999/xlink">
<title>if_User_Interface-24_2044264</title>
<desc>Created using Figma</desc>
<g id="Canvas" transform="translate(-610 -5569)">
<g id="if_User_Interface-24_2044264">
<g id="Group">
<g id="Vector">
<use xlink:href="#path0_stroke" transform="translate(611 5570)" fill="#34495E"/>
</g>
</g>
</g>
</g>
<defs>
<path id="path0_stroke" d="M 7.75916 0.694386L 8.1022 1.05815L 8.10279 1.05759L 7.75916 0.694386ZM 6 2.35335L 5.65637 2.71655C 5.84892 2.89873 6.15019 2.89897 6.34304 2.71711L 6 2.35335ZM 4.24084 0.688982L 3.89721 1.05219L 4.24084 0.688982ZM 0.728225 4.01231L 1.07186 3.6491L 1.07186 3.6491L 0.728225 4.01231ZM 6 9L 5.65637 9.3632C 5.84915 9.5456 6.15085 9.5456 6.34363 9.3632L 6 9ZM 11.2718 4.01231L 10.9292 3.64809L 10.9281 3.6491L 11.2718 4.01231ZM 11.6154 0.331182C 10.4517 -0.769856 8.57928 -0.769856 7.41553 0.331182L 8.10279 1.05759C 8.88098 0.321342 10.15 0.321342 10.9281 1.05759L 11.6154 0.331182ZM 7.41612 0.330625L 5.65696 1.98959L 6.34304 2.71711L 8.1022 1.05815L 7.41612 0.330625ZM 6.34363 1.99014L 4.58447 0.325778L 3.89721 1.05219L 5.65637 2.71655L 6.34363 1.99014ZM 4.58447 0.325778C 3.42072 -0.77526 1.54834 -0.77526 0.384593 0.325778L 1.07186 1.05219C 1.85004 0.315938 3.11902 0.315938 3.89721 1.05219L 4.58447 0.325778ZM 0.384593 0.325778C -0.794864 1.44168 -0.794864 3.25961 0.384593 4.37551L 1.07186 3.6491C 0.309381 2.92772 0.309381 1.77357 1.07186 1.05219L 0.384593 0.325778ZM 0.384593 4.37551L 5.65637 9.3632L 6.34363 8.6368L 1.07186 3.6491L 0.384593 4.37551ZM 6.34363 9.3632L 11.6154 4.37551L 10.9281 3.6491L 5.65637 8.6368L 6.34363 9.3632ZM 11.6143 4.37652C 12.7958 3.26526 12.7942 1.4465 11.6154 0.331182L 10.9281 1.05759C 11.6912 1.77956 11.6896 2.93287 10.9292 3.64809L 11.6143 4.37652Z"/>
</defs>
</svg>
