<svg width="8" height="11" viewBox="0 0 8 11" version="1.1" xmlns="http://www.w3.org/2000/svg" xmlns:xlink="http://www.w3.org/1999/xlink">
<title>Group</title>
<desc>Created using Figma</desc>
<g id="Canvas" transform="translate(-607 -5822)">
<g id="Group">
<g id="Vector">
<use xlink:href="#path0_fill" transform="translate(607 5822)" fill="#147FB5"/>
</g>
</g>
</g>
<defs>
<path id="path0_fill" d="M 0.607949 10.9162L 4 8.1688L 7.39205 10.9162C 7.46003 10.9715 7.54474 10.9999 7.63054 10.9999C 7.6831 10.9999 7.7361 10.9891 7.78627 10.9673C 7.91594 10.9094 8 10.7846 8 10.6472L 8 1.35368C 8 0.607081 7.36447 1.26721e-08 6.58384 1.26721e-08L 1.41573 1.26721e-08C 0.6351 1.26721e-08 -1.59084e-07 0.607081 -1.59084e-07 1.35368L -1.59084e-07 10.6472C -1.59084e-07 10.7846 0.083623 10.9096 0.213727 10.9675C 0.344483 11.025 0.497611 11.0051 0.607949 10.9162ZM 0.738054 1.35368C 0.738054 0.996368 1.04214 0.706115 1.41551 0.706115L 6.58384 0.706115C 6.95721 0.706115 7.26129 0.996368 7.26129 1.35368L 7.26129 9.8854L 4.23849 7.43715C 4.16985 7.38109 4.08493 7.35348 4 7.35348C 3.91464 7.35348 3.82993 7.3813 3.76108 7.43715L 0.738054 9.8854L 0.738054 1.35368Z"/>
</defs>
</svg>
