<svg width="24" height="19" viewBox="0 0 24 19" version="1.1" xmlns="http://www.w3.org/2000/svg" xmlns:xlink="http://www.w3.org/1999/xlink">
<title>theater</title>
<desc>Created using Figma</desc>
<g id="Canvas" transform="translate(-786 -5565)">
<g id="theater">
<g id="Group">
<g id="Group">
<g id="Vector">
<use xlink:href="#path0_fill" transform="translate(790.007 5578.17)" fill="#147FB5"/>
</g>
</g>
</g>
<g id="Group">
<g id="Group">
<g id="Vector">
<use xlink:href="#path1_fill" transform="translate(789.803 5573.31)" fill="#147FB5"/>
</g>
</g>
</g>
<g id="Group">
<g id="Group">
<g id="Vector">
<use xlink:href="#path1_fill" transform="translate(794.642 5573.31)" fill="#147FB5"/>
</g>
</g>
</g>
<g id="Group">
<g id="Group">
<g id="Vector">
<use xlink:href="#path2_fill" transform="translate(786.691 5565.08)" fill="#147FB5"/>
</g>
</g>
</g>
<g id="Group">
<g id="Group">
<g id="Vector">
<use xlink:href="#path3_fill" transform="matrix(0.347323 -0.937745 0.949132 0.314877 800.659 5569.97)" fill="#147FB5"/>
</g>
</g>
</g>
<g id="Group">
<g id="Group">
<g id="Vector">
<use xlink:href="#path4_fill" transform="matrix(0.347323 -0.937745 0.949132 0.314877 804.143 5571.13)" fill="#147FB5"/>
</g>
</g>
</g>
</g>
</g>
<defs>
<path id="path0_fill" d="M 5.34502 0.00815107L 5.34691 1.14017e-07C 5.31609 0.121594 4.99759 1.18805 3.31638 1.18805C 1.6446 1.18805 1.34785 0.130892 1.3195 0.0103174L 1.32125 0.0186808L -3.28562e-08 0.259957C 0.0121569 0.319778 0.132784 0.859436 0.606861 1.39222C 1.04092 1.88008 1.86333 2.46155 3.31638 2.46155C 5.57699 2.46155 6.49316 1.02833 6.66179 0.270487L 5.34502 0.00815107Z"/>
<path id="path1_fill" d="M 2.23374 0L 0 0L 0 1.27355L 2.23374 1.27355L 2.23374 0Z"/>
<path id="path2_fill" d="M 13.0967 -3.23913e-08L 11.5372 4.21002L 0 4.21002L 0 11.2178C 0 12.6351 0.358159 14.0255 1.03581 15.2382C 1.97898 16.9263 3.42517 18.1015 5.21798 18.6367C 5.68578 18.7764 6.16681 18.8462 6.64793 18.8462C 7.129 18.8462 7.61021 18.7763 8.07787 18.6367C 9.87069 18.1015 11.3169 16.9263 12.2601 15.2382C 12.7969 14.2774 13.1323 13.2066 13.249 12.1007C 13.8206 12.4447 14.4748 12.6358 15.1575 12.6561C 15.2164 12.6579 15.2751 12.6588 15.3337 12.6588C 16.7441 12.6588 18.0731 12.1458 19.1875 11.1688C 20.0181 10.4402 20.6603 9.50563 21.0447 8.46661L 22.9681 3.27526L 13.0967 -3.23913e-08ZM 11.9503 11.2248C 11.9503 12.4309 11.6461 13.6129 11.0705 14.6429C 10.2851 16.0485 9.14208 16.9836 7.67306 17.4222C 7.00245 17.6223 6.29345 17.6224 5.62275 17.4221C 4.15378 16.9836 3.01066 16.0486 2.22531 14.6429C 1.6498 13.6129 1.34561 12.4285 1.34561 11.2178L 1.34561 5.48357L 11.9502 5.48357L 11.9502 11.2248L 11.9503 11.2248ZM 19.7748 8.04544C 19.4625 8.88964 18.9431 9.64671 18.2729 10.2346C 17.3646 11.0309 16.3311 11.417 15.2001 11.3832C 14.6968 11.3682 14.2178 11.2094 13.8149 10.924C 13.6275 10.7912 13.4537 10.6452 13.2959 10.4885L 13.2959 8.79662L 13.6654 9.02601C 13.6699 9.01951 14.1324 8.37579 15.2368 8.80549C 15.7026 8.98669 16.0059 9.24495 16.1383 9.57322C 16.2394 9.82367 16.2084 10.0364 16.2081 10.0385C 16.2092 10.0311 16.2101 10.0273 16.2101 10.0273L 17.5334 10.2583C 17.6548 9.63576 17.4379 8.28468 15.7484 7.62751C 14.7039 7.22125 13.8693 7.37969 13.2959 7.68512L 13.2959 4.21002L 12.9631 4.21002L 13.9214 1.62318L 21.253 4.05573L 19.7748 8.04544Z"/>
<path id="path3_fill" d="M 1.28164 0L 0 0L 0 1.69388L 1.28164 1.69388L 1.28164 0Z"/>
<path id="path4_fill" d="M 1.28164 0L 0 0L 0 1.69389L 1.28164 1.69389L 1.28164 0Z"/>
</defs>
</svg>
