<svg width="16" height="16" viewBox="0 0 16 16" version="1.1" xmlns="http://www.w3.org/2000/svg" xmlns:xlink="http://www.w3.org/1999/xlink">
<title>if_User_Interface-31_2044257</title>
<desc>Created using Figma</desc>
<g id="Canvas" transform="translate(-1025 -5567)">
<g id="if_User_Interface-31_2044257">
<g id="Group">
<g id="Vector">
<use xlink:href="#path0_stroke" transform="translate(1026 5568)" fill="#34495E"/>
</g>
<g id="Vector">
<use xlink:href="#path1_stroke" transform="translate(1028.43 5569.7)" fill="#34495E"/>
</g>
<g id="Vector">
<use xlink:href="#path2_stroke" transform="translate(1028.43 5578.6)" fill="#34495E"/>
</g>
<g id="Vector">
<use xlink:href="#path3_stroke" transform="translate(1030.05 5568)" fill="#34495E"/>
</g>
<g id="Vector">
<use xlink:href="#path4_stroke" transform="translate(1026 5575)" fill="#34495E"/>
</g>
</g>
</g>
</g>
<defs>
<path id="path0_stroke" d="M 13.625 7C 13.625 10.6589 10.6589 13.625 7 13.625L 7 14.375C 11.0731 14.375 14.375 11.0731 14.375 7L 13.625 7ZM 7 13.625C 3.34111 13.625 0.375 10.6589 0.375 7L -0.375 7C -0.375 11.0731 2.9269 14.375 7 14.375L 7 13.625ZM 0.375 7C 0.375 3.34111 3.34111 0.375 7 0.375L 7 -0.375C 2.9269 -0.375 -0.375 2.9269 -0.375 7L 0.375 7ZM 7 0.375C 10.6589 0.375 13.625 3.34111 13.625 7L 14.375 7C 14.375 2.9269 11.0731 -0.375 7 -0.375L 7 0.375Z"/>
<path id="path1_stroke" d="M 9.38402 0.283968C 9.54086 0.148701 9.55834 -0.0880918 9.42307 -0.244923C 9.2878 -0.401754 9.05101 -0.419236 8.89418 -0.283969L 9.38402 0.283968ZM 0.244922 -0.276301C 0.0880908 -0.411568 -0.148702 -0.394087 -0.283969 -0.237256C -0.419236 -0.0804243 -0.401754 0.156368 -0.244923 0.291635L 0.244922 -0.276301ZM 8.89418 -0.283969C 7.73235 0.718108 6.22359 1.32708 4.56955 1.32708L 4.56955 2.07708C 6.41167 2.07708 8.0924 1.39799 9.38402 0.283968L 8.89418 -0.283969ZM 4.56955 1.32708C 2.91437 1.32708 1.40586 0.725004 0.244922 -0.276301L -0.244923 0.291635C 1.04759 1.40643 2.72857 2.07708 4.56955 2.07708L 4.56955 1.32708Z"/>
<path id="path2_stroke" d="M -0.244923 1.41811C -0.401754 1.55338 -0.419236 1.79017 -0.283969 1.947C -0.148702 2.10384 0.0880908 2.12132 0.244922 1.98605L -0.244923 1.41811ZM 8.89418 1.98605C 9.05101 2.12132 9.2878 2.10384 9.42307 1.947C 9.55834 1.79017 9.54086 1.55338 9.38402 1.41811L 8.89418 1.98605ZM 0.244922 1.98605C 1.40675 0.983973 2.91551 0.375 4.56955 0.375L 4.56955 -0.375C 2.72743 -0.375 1.0467 0.304089 -0.244923 1.41811L 0.244922 1.98605ZM 4.56955 0.375C 6.22359 0.375 7.73235 0.983973 8.89418 1.98605L 9.38402 1.41811C 8.0924 0.304089 6.41167 -0.375 4.56955 -0.375L 4.56955 0.375Z"/>
<path id="path3_stroke" d="M 2.95181 -2.33979e-07L 3.18451 -0.294069C 3.04814 -0.401977 2.85548 -0.401977 2.71911 -0.294069L 2.95181 -2.33979e-07ZM 2.95181 14L 2.71911 14.2941C 2.85548 14.402 3.04814 14.402 3.18451 14.2941L 2.95181 14ZM 2.71911 -0.294069C 0.847494 1.18695 -0.375 3.92082 -0.375 7L 0.375 7C 0.375 4.09889 1.52929 1.60385 3.18451 0.294069L 2.71911 -0.294069ZM -0.375 7C -0.375 10.0792 0.847494 12.8131 2.71911 14.2941L 3.18451 13.7059C 1.52929 12.3961 0.375 9.90111 0.375 7L -0.375 7ZM 3.18451 14.2941C 5.05612 12.8131 6.27861 10.0792 6.27861 7L 5.52861 7C 5.52861 9.90111 4.37433 12.3961 2.71911 13.7059L 3.18451 14.2941ZM 6.27861 7C 6.27861 3.92082 5.05612 1.18695 3.18451 -0.294069L 2.71911 0.294069C 4.37433 1.60385 5.52861 4.09889 5.52861 7L 6.27861 7Z"/>
<path id="path4_stroke" d="M -2.33979e-07 -0.375C -0.207107 -0.375 -0.375 -0.207107 -0.375 0C -0.375 0.207107 -0.207107 0.375 -2.33979e-07 0.375L -2.33979e-07 -0.375ZM 14 0.375C 14.2071 0.375 14.375 0.207107 14.375 0C 14.375 -0.207107 14.2071 -0.375 14 -0.375L 14 0.375ZM -2.33979e-07 0.375L 14 0.375L 14 -0.375L -2.33979e-07 -0.375L -2.33979e-07 0.375Z"/>
</defs>
</svg>
