<svg width="10" height="12" viewBox="0 0 10 12" version="1.1" xmlns="http://www.w3.org/2000/svg" xmlns:xlink="http://www.w3.org/1999/xlink">
<title>Group</title>
<desc>Created using Figma</desc>
<g id="Canvas" transform="translate(-616 -6927)">
<g id="Group">
<g id="Group">
<g id="Vector">
<use xlink:href="#path0_fill" transform="matrix(-1 0 0 1 626 6927)" fill="#1A3C72"/>
</g>
<g id="Vector">
<use xlink:href="#path1_fill" transform="matrix(-1 0 0 1 622.67 6929.7)" fill="#1A3C72"/>
</g>
</g>
</g>
</g>
<defs>
<path id="path0_fill" d="M 5.00539 9.8571e-09C 2.24864 9.8571e-09 8.24796e-08 2.14987 8.24796e-08 4.79587C 8.24796e-08 5.11628 0.0324323 5.43669 0.097297 5.74677C 0.097297 5.76744 0.108108 5.78811 0.108108 5.81912C 0.659457 8.18605 4.54052 11.7416 4.70268 11.8863C 4.78917 11.969 4.89728 12 5.00539 12C 5.11349 12 5.2216 11.9587 5.30809 11.8863C 5.47025 11.7313 9.32969 8.18605 9.88104 5.8708C 9.88104 5.85013 9.89185 5.82946 9.89185 5.80879C 9.96753 5.47804 9.99996 5.13695 9.99996 4.79587C 10.0108 2.14987 7.76213 9.8571e-09 5.00539 9.8571e-09ZM 9.02699 5.65375C 9.02699 5.67442 9.02699 5.66408 9.02699 5.68475C 8.61618 7.40052 5.9243 10.1085 5.00539 10.9871C 4.08647 10.1085 1.38378 7.40052 0.972969 5.64341C 0.972969 5.62274 0.972969 5.6124 0.962158 5.59173C 0.908105 5.323 0.875672 5.05426 0.875672 4.78553C 0.875672 2.61499 2.72431 0.837209 4.99458 0.837209C 7.26484 0.837209 9.12429 2.60465 9.12429 4.78553C 9.12429 5.08527 9.09186 5.37468 9.02699 5.65375Z"/>
<path id="path1_fill" d="M 1.67567 0C 0.745943 0 0 0.723514 0 1.60207C 0 2.48062 0.756754 3.20413 1.67567 3.20413C 2.59458 3.20413 3.35134 2.49096 3.35134 1.60207C 3.35134 0.713178 2.6054 0 1.67567 0ZM 1.67567 2.36693C 1.23243 2.36693 0.875672 2.02584 0.875672 1.60207C 0.875672 1.17829 1.23243 0.837209 1.67567 0.837209C 2.11891 0.837209 2.47567 1.17829 2.47567 1.60207C 2.47567 2.02584 2.11891 2.36693 1.67567 2.36693Z"/>
</defs>
</svg>
