<svg width="14" height="14" viewBox="0 0 14 14" version="1.1" xmlns="http://www.w3.org/2000/svg" xmlns:xlink="http://www.w3.org/1999/xlink">
<title>if_General_-_Office_48_1471110</title>
<desc>Created using Figma</desc>
<g id="Canvas" transform="translate(-610 -5664)">
<g id="if_General_-_Office_48_1471110">
<g id="Group">
<g id="Vector">
<use xlink:href="#path0_fill" transform="translate(610 5664)" fill="#34495E"/>
</g>
</g>
</g>
</g>
<defs>
<path id="path0_fill" d="M 1.73625 4.45893C 1.75152 4.46053 1.76601 4.46106 1.78076 4.46106C 1.89695 4.46106 2.00926 4.41418 2.09206 4.32841L 2.46314 3.94591L 5.03559 6.59335L 1.21612 10.5244C 0.908445 10.8411 0.760686 11.2788 0.801054 11.7564C 0.839353 12.2044 1.04119 12.6373 1.36466 12.9692L 1.39649 13.003C 1.77455 13.3911 2.2613 13.5898 2.72528 13.5898C 3.11809 13.5898 3.4946 13.4478 3.77615 13.158L 6.62056 10.2306L 9.81768 13.5656C 10.0896 13.8455 10.4631 14 10.8691 14C 11.3488 14 11.8325 13.785 12.223 13.382C 12.5519 13.0437 12.7532 12.6114 12.791 12.1637C 12.8308 11.6866 12.6838 11.2489 12.3774 10.9344L 9.91601 8.36576C 10.7449 8.3647 11.538 7.99684 12.2602 7.25341L 13.265 6.2191C 14.3643 5.08809 14.0388 3.75625 13.5238 2.48514L 13.2705 1.86077L 11.6451 3.53543C 11.4055 3.78262 11.1897 3.9246 11.0052 3.95736C 10.8864 3.9792 10.7024 3.97441 10.4351 3.69818L 10.4038 3.66702C 10.1391 3.39452 9.93386 3.07435 10.565 2.42414L 12.1919 0.750544L 11.5859 0.489768C 10.3513 -0.0408385 9.05767 -0.3738 7.95892 0.756137L 6.95256 1.79098C 5.82743 2.95075 5.50603 4.28286 6.02409 5.58407C 5.99278 5.61071 5.9625 5.63868 5.93352 5.66825L 5.65715 5.95273L 3.08471 3.30529L 3.48943 2.88869C 3.58284 2.79253 3.62942 2.65775 3.61571 2.5219C 3.60199 2.38658 3.53031 2.26485 3.41956 2.19L 1.37967 0.810743C 1.20526 0.693274 0.974431 0.716448 0.826673 0.869078L 0.128249 1.58907C -0.0187328 1.7409 -0.0420219 1.97877 0.0720962 2.15777L 1.41253 4.25702C 1.48576 4.37076 1.6048 4.44481 1.73625 4.45893ZM 11.7535 11.5718C 11.8749 11.6967 11.9318 11.8786 11.9142 12.0853C 11.8946 12.3211 11.7838 12.5536 11.575 12.7694C 11.3744 12.9758 11.117 13.0941 10.8688 13.0941C 10.748 13.0941 10.5756 13.065 10.4418 12.9276L 6.47461 8.78876L 7.78917 7.4356L 11.7535 11.5718ZM 6.55638 6.30886C 6.60581 6.25799 6.66921 6.2183 6.74943 6.18713L 7.22557 6.00361L 6.98051 5.54518C 6.40889 4.47438 6.60943 3.42675 7.57543 2.43186L 8.58179 1.39702C 9.09467 0.868545 9.665 0.767591 10.6222 1.08537L 9.94344 1.78352C 8.80666 2.95421 9.35474 3.86706 9.78585 4.31083L 9.81716 4.342C 10.3277 4.86914 10.8274 4.90803 11.1566 4.84969C 11.5287 4.78257 11.8925 4.56202 12.268 4.17552L 12.9462 3.47683C 13.2544 4.46373 13.1566 5.05054 12.6435 5.57821L 11.6386 6.61306C 10.7394 7.53869 9.78585 7.70357 8.72799 7.12502L 8.38538 6.76755C 8.24849 6.62504 8.07848 6.51423 7.88 6.43725L 7.61528 6.3347L 6.82188 7.15086L 6.28002 6.59335L 6.55638 6.30886ZM 6.19954 7.79147L 5.40563 8.60869L 5.50526 8.88119C 5.57901 9.08363 5.68665 9.25783 5.82329 9.39821L 6.00261 9.58494L 3.15406 12.5177C 2.88365 12.7965 2.37361 12.7268 2.02297 12.3674L 1.99114 12.3331C 1.80923 12.1463 1.69796 11.9138 1.67829 11.6775C 1.66069 11.4716 1.71762 11.2889 1.83847 11.1645L 5.65793 7.23343L 6.19954 7.79147ZM 1.19697 1.7702L 2.48566 2.64203L 1.85192 3.29437L 1.00445 1.96812L 1.19697 1.7702Z"/>
</defs>
</svg>
