<svg width="12" height="9" viewBox="0 0 12 9" version="1.1" xmlns="http://www.w3.org/2000/svg" xmlns:xlink="http://www.w3.org/1999/xlink">
<title>Group</title>
<desc>Created using Figma</desc>
<g id="Canvas" transform="translate(-1460 -6497)">
<g id="Group">
<g id="Vector">
<mask id="mask0_outline_ins">
<use xlink:href="#path0_fill" fill="white" transform="translate(1460.69 6497)"/>
</mask>
<g mask="url(#mask0_outline_ins)">
<use xlink:href="#path1_stroke_2x" transform="translate(1460.69 6497)" fill="#147FB5"/>
</g>
</g>
<g id="Vector">
<mask id="mask1_outline_ins">
<use xlink:href="#path2_fill" fill="white" transform="translate(1468.03 6497.98)"/>
</mask>
<g mask="url(#mask1_outline_ins)">
<use xlink:href="#path3_stroke_2x" transform="translate(1468.03 6497.98)" fill="#147FB5"/>
</g>
</g>
</g>
</g>
<defs>
<path id="path0_fill" d="M 6.8485 9L 0.752516 9C 0.337684 9 0 8.53533 0 7.96407L 0 1.03557C 0 0.464666 0.337684 0 0.752516 0L 6.8485 0C 7.26333 0 7.60075 0.464666 7.60075 1.03593L 7.60075 7.96443C 7.60075 8.53533 7.26333 9 6.8485 9Z"/>
<path id="path1_stroke_2x" d="M -0.115243 7.96407C -0.115243 8.22193 -0.0394612 8.47054 0.100985 8.66381C 0.240958 8.85642 0.466587 9.01729 0.752516 9.01729L 0.752516 8.26729C 0.767 8.26729 0.746249 8.27595 0.707704 8.22291C 0.669632 8.17052 0.634757 8.08002 0.634757 7.96407L -0.115243 7.96407ZM 6.8485 8.25L 0.752516 8.25L 0.752516 9.75L 6.8485 9.75L 6.8485 8.25ZM 0.752516 8.25C 0.845307 8.25 0.862137 8.30315 0.827468 8.25543C 0.793645 8.20888 0.75 8.10803 0.75 7.96407L -0.75 7.96407C -0.75 8.39137 -0.624803 8.80849 -0.386075 9.13709C -0.148194 9.46451 0.244894 9.75 0.752516 9.75L 0.752516 8.25ZM 0.75 7.96407L 0.75 1.03557L -0.75 1.03557L -0.75 7.96407L 0.75 7.96407ZM 0.75 1.03557C 0.75 0.891883 0.793595 0.791136 0.827418 0.744592C 0.862095 0.696872 0.845285 0.75 0.752516 0.75L 0.752516 -0.75C 0.244916 -0.75 -0.148153 -0.464539 -0.386025 -0.137199C -0.624753 0.191316 -0.75 0.608355 -0.75 1.03557L 0.75 1.03557ZM 0.752516 0.75L 6.8485 0.75L 6.8485 -0.75L 0.752516 -0.75L 0.752516 0.75ZM 6.8485 0.75C 6.75564 0.75 6.73871 0.696775 6.77332 0.74443C 6.8071 0.790956 6.85075 0.891839 6.85075 1.03593L 8.35075 1.03593C 8.35075 0.608757 8.22569 0.191675 7.98706 -0.136948C 7.74924 -0.464442 7.35619 -0.75 6.8485 -0.75L 6.8485 0.75ZM 6.85075 1.03593L 6.85075 7.96443L 8.35075 7.96443L 8.35075 1.03593L 6.85075 1.03593ZM 6.85075 7.96443C 6.85075 8.10825 6.80715 8.20903 6.77337 8.25555C 6.73875 8.3032 6.75566 8.25 6.8485 8.25L 6.8485 9.75C 7.35617 9.75 7.7492 9.46447 7.98701 9.13706C 8.22564 8.80852 8.35075 8.39151 8.35075 7.96443L 6.85075 7.96443Z"/>
<path id="path2_fill" d="M 3.37658 7.04755C 3.34905 7.04755 3.32177 7.03538 3.29866 7.01178L 0.0519516 3.66575C 0.0192222 3.63177 0 3.57883 0 3.52267C 0 3.4665 0.0192222 3.41321 0.0519516 3.37958L 3.29788 0.0357019C 3.33762 -0.00471938 3.39009 -0.0115159 3.43373 0.0188895C 3.47789 0.049295 3.50542 0.111179 3.50542 0.178786L 3.50646 6.86869C 3.50646 6.9363 3.47893 6.99818 3.43477 7.02859C 3.41633 7.04147 3.39632 7.04755 3.37658 7.04755Z"/>
<path id="path3_stroke_2x" d="M 3.6217 6.51129L 3.62093 0.53609L 2.87093 0.536188L 2.8717 6.51139L 3.6217 6.51129ZM 3.29866 7.01178L 2.76039 7.53406L 2.76279 7.53651L 3.29866 7.01178ZM 0.0519516 3.66575L -0.488249 4.18603L -0.486307 4.18803L 0.0519516 3.66575ZM 0.0519516 3.37958L 0.58939 3.90271L 0.590105 3.90197L 0.0519516 3.37958ZM 3.29788 0.0357019L 2.76307 -0.490132L 2.75972 -0.486687L 3.29788 0.0357019ZM 3.43373 0.0188895L 3.00497 0.634262L 3.00839 0.636619L 3.43373 0.0188895ZM 3.50542 0.178786L 2.75542 0.178786L 2.75542 0.178902L 3.50542 0.178786ZM 3.50646 6.86869L 4.25646 6.86869L 4.25646 6.86857L 3.50646 6.86869ZM 3.43477 7.02859L 3.00942 6.41085L 3.0054 6.41366L 3.43477 7.02859ZM 3.37658 6.29755C 3.58165 6.29755 3.73981 6.39032 3.83452 6.48704L 2.76279 7.53651C 2.90374 7.68045 3.11644 7.79755 3.37658 7.79755L 3.37658 6.29755ZM 3.83691 6.48949L 0.59021 3.14347L -0.486307 4.18803L 2.7604 7.53406L 3.83691 6.48949ZM 0.592148 3.14547C 0.719076 3.27726 0.75 3.42419 0.75 3.52267L -0.75 3.52267C -0.75 3.73346 -0.680631 3.98627 -0.488245 4.18603L 0.592148 3.14547ZM 0.75 3.52267C 0.75 3.57852 0.740693 3.63788 0.718821 3.69822C 0.697382 3.75738 0.658533 3.83167 0.589389 3.90271L -0.485486 2.85645C -0.68195 3.05829 -0.75 3.31432 -0.75 3.52267L 0.75 3.52267ZM 0.590105 3.90197L 3.83603 0.558091L 2.75972 -0.486687L -0.486202 2.85719L 0.590105 3.90197ZM 3.83268 0.561525C 3.75114 0.644455 3.6242 0.72403 3.45763 0.744911C 3.2866 0.766353 3.12625 0.71875 3.00498 0.634253L 3.86248 -0.596474C 3.48503 -0.859465 3.02925 -0.760842 2.76308 -0.490121L 3.83268 0.561525ZM 3.00839 0.636619C 2.896 0.559227 2.83386 0.463431 2.80153 0.391189C 2.76836 0.317042 2.75542 0.24434 2.75542 0.178786L 4.25542 0.178786C 4.25542 -0.0599696 4.16171 -0.390452 3.85907 -0.598839L 3.00839 0.636619ZM 2.75542 0.178902L 2.75646 6.86881L 4.25646 6.86857L 4.25542 0.17867L 2.75542 0.178902ZM 2.75646 6.86869C 2.75646 6.80314 2.7694 6.73044 2.80257 6.65629C 2.83489 6.58405 2.89703 6.48825 3.00943 6.41086L 3.86011 7.64632C 4.16276 7.43792 4.25646 7.10743 4.25646 6.86869L 2.75646 6.86869ZM 3.0054 6.41366C 3.10841 6.34173 3.23739 6.29755 3.37658 6.29755L 3.37658 7.79755C 3.55526 7.79755 3.72424 7.7412 3.86414 7.64352L 3.0054 6.41366Z"/>
</defs>
</svg>
