<svg width="21" height="19" viewBox="0 0 21 19" version="1.1" xmlns="http://www.w3.org/2000/svg" xmlns:xlink="http://www.w3.org/1999/xlink">
<title>joystick</title>
<desc>Created using Figma</desc>
<g id="Canvas" transform="translate(-919 -5564)">
<g id="joystick">
<g id="Group">
<g id="Group">
<g id="Vector">
<use xlink:href="#path0_fill" transform="translate(919 5564)" fill="#147FB5"/>
</g>
</g>
</g>
</g>
</g>
<defs>
<path id="path0_fill" d="M 18.7555 14.5248L 18.7555 12.4859L 17.7033 12.4859L 17.7033 12.0929C 17.7033 11.1854 16.9166 10.447 15.9495 10.447L 15.6349 10.447L 15.6349 6.61037C 16.9009 6.06061 17.7814 4.85727 17.7814 3.46439C 17.7814 1.55413 16.1254 2.64312e-09 14.09 2.64312e-09C 12.0545 2.64312e-09 10.3986 1.55413 10.3986 3.46439C 10.3986 4.85727 11.2791 6.06057 12.5451 6.61037L 12.5451 10.447L 12.2304 10.447C 11.2634 10.447 10.4767 11.1854 10.4767 12.0929L 10.4767 12.4859L 9.42449 12.4859L 9.42449 14.5248L 5.71491 14.5248L 5.71491 12.4859L 2.46094 12.4859L 2.46094 14.5248L 0 14.5248L 0 19L 21 19L 21 14.5248L 18.7555 14.5248ZM 11.629 3.46443C 11.629 2.19092 12.733 1.15484 14.0899 1.15484C 15.4469 1.15484 16.5509 2.19092 16.5509 3.46443C 16.5509 4.73794 15.4469 5.77403 14.0899 5.77403C 12.733 5.77403 11.629 4.73794 11.629 3.46443ZM 14.4044 6.91612L 14.4044 10.447L 13.7755 10.447L 13.7755 6.91612C 13.8792 6.92436 13.984 6.92882 14.09 6.92882C 14.1959 6.92882 14.3007 6.92436 14.4044 6.91612ZM 11.7071 12.0929C 11.7071 11.8221 11.9418 11.6018 12.2304 11.6018L 12.545 11.6018L 15.6349 11.6018L 15.9495 11.6018C 16.2381 11.6018 16.4728 11.8221 16.4728 12.0929L 16.4728 12.4859L 11.7071 12.4859L 11.7071 12.0929ZM 10.6549 13.6407L 17.525 13.6407L 17.525 14.5248L 10.6549 14.5248L 10.6549 13.6407ZM 3.69141 13.6407L 4.48436 13.6407L 4.48436 14.5248L 3.69141 14.5248L 3.69141 13.6407ZM 19.7695 17.8452L 1.23047 17.8452L 1.23047 15.6796L 19.7695 15.6796L 19.7695 17.8452Z"/>
</defs>
</svg>
