<svg width="11" height="13" viewBox="0 0 11 13" version="1.1" xmlns="http://www.w3.org/2000/svg" xmlns:xlink="http://www.w3.org/1999/xlink">
<title>rubbish-bin</title>
<desc>Created using Figma</desc>
<g id="Canvas" transform="translate(-1081 -8663)">
<g id="rubbish-bin">
<g id="Group">
<g id="Group">
<g id="Vector">
<use xlink:href="#path0_fill" transform="translate(1081 8663)" fill="#147FB5"/>
</g>
<g id="Vector">
<use xlink:href="#path1_fill" transform="translate(1088.08 8667.81)" fill="#147FB5"/>
</g>
<g id="Vector">
<use xlink:href="#path2_fill" transform="translate(1086.07 8667.81)" fill="#147FB5"/>
</g>
<g id="Vector">
<use xlink:href="#path3_fill" transform="translate(1084.07 8667.81)" fill="#147FB5"/>
</g>
</g>
</g>
</g>
</g>
<defs>
<path id="path0_fill" d="M 10.0513 1.53073L 8.19317 1.53073L 8.19317 0.402811C 8.19317 0.175775 7.99713 0 7.7541 0C 7.73052 0 7.71479 0.00735405 7.70712 0.0146913C 7.69925 0.00735405 7.68352 0 7.67566 0L 3.30861 0L 3.27733 0L 3.24588 0C 3.00286 0 2.81469 0.175775 2.81469 0.402811L 2.81469 1.53075L 0.948714 1.53075C 0.415484 1.53075 5.8143e-08 1.91887 5.8143e-08 2.41698L 5.8143e-08 3.0615L 5.8143e-08 3.86711L 0.823257 3.86711L 0.823257 12.1211C 0.823257 12.6192 1.23089 13 1.76412 13L 9.2359 13C 9.76913 13 10.1846 12.6192 10.1846 12.1211L 10.1846 3.86711L 11 3.86711L 11 3.0615L 11 2.41698C 11 1.91887 10.5844 1.53073 10.0513 1.53073ZM 3.67709 0.805605L 7.32291 0.805605L 7.32291 1.53073L 3.67709 1.53073L 3.67709 0.805605ZM 9.31434 12.1211C 9.31434 12.1725 9.29076 12.1944 9.2359 12.1944L 1.76412 12.1944C 1.70926 12.1944 1.68568 12.1725 1.68568 12.1211L 1.68568 3.86709L 9.31434 3.86709L 9.31434 12.1211ZM 10.1297 3.06149L 0.870258 3.06149L 0.870258 2.41696C 0.870258 2.3657 0.89384 2.33634 0.948696 2.33634L 10.0513 2.33634C 10.1062 2.33634 10.1297 2.3657 10.1297 2.41696L 10.1297 3.06149Z"/>
<path id="path1_fill" d="M 0.870258 0L 0 0L 0 6.66469L 0.870258 6.66469L 0.870258 0Z"/>
<path id="path2_fill" d="M 0.870258 0L 0 0L 0 6.66469L 0.870258 6.66469L 0.870258 0Z"/>
<path id="path3_fill" d="M 0.870258 0L 0 0L 0 6.66469L 0.870258 6.66469L 0.870258 0Z"/>
</defs>
</svg>
