<svg width="13" height="13" viewBox="0 0 13 13" version="1.1" xmlns="http://www.w3.org/2000/svg" xmlns:xlink="http://www.w3.org/1999/xlink">
<title>if_Pen_728966</title>
<desc>Created using Figma</desc>
<g id="Canvas" transform="translate(-1056 -8663)">
<g id="if_Pen_728966">
<g id="Vector">
<use xlink:href="#path0_fill" transform="translate(1056 8663)" fill="#147FB5"/>
</g>
</g>
</g>
<defs>
<path id="path0_fill" d="M 12.5241 1.625L 11.3753 0.475922C 11.0579 0.158742 10.6417 0 10.226 0C 9.8103 0 9.3944 0.158742 9.07702 0.475922L 2.10071 7.45215C 1.78374 7.76953 0.812904 8.99702 0.812498 9.41281L 0 13L 3.58647 12.1875C 3.58647 12.1875 5.23055 11.2163 5.54794 10.8989L 12.5242 3.92285C 13.1586 3.28809 13.1586 2.25905 12.5241 1.625ZM 1.07707 11.9232L 1.60468 9.59207C 1.6122 9.55876 1.61778 9.52463 1.62093 9.49132C 1.62256 9.48655 1.62692 9.47944 1.62885 9.47466L 3.46611 11.3123C 3.40467 11.3496 3.34272 11.3869 3.28198 11.4234L 1.07707 11.9232ZM 4.97492 10.3229C 4.88291 10.4102 4.56471 10.6253 4.17593 10.8728L 2.07095 8.76769C 2.28677 8.47174 2.52717 8.17416 2.67515 8.02659L 7.92815 2.77398L 10.226 5.07183L 4.97492 10.3229ZM 11.9497 3.34841L 10.8004 4.49739L 8.50258 2.19954L 9.65186 1.05056C 9.80502 0.896695 10.009 0.8125 10.226 0.8125C 10.443 0.8125 10.6473 0.897406 10.8008 1.05056L 11.9498 2.19954C 12.1034 2.3527 12.1875 2.55663 12.1875 2.77398C 12.1874 2.99061 12.1029 3.19526 11.9497 3.34841Z"/>
</defs>
</svg>
