<svg width="10" height="13" viewBox="0 0 10 13" version="1.1" xmlns="http://www.w3.org/2000/svg" xmlns:xlink="http://www.w3.org/1999/xlink">
<title>padlock</title>
<desc>Created using Figma</desc>
<g id="Canvas" transform="translate(-1106 -8663)">
<g id="padlock">
<g id="Group">
<g id="Group">
<g id="Vector">
<use xlink:href="#path0_fill" transform="translate(1106 8663)" fill="#147FB5"/>
</g>
<g id="Vector">
<use xlink:href="#path1_fill" transform="translate(1110.45 8671.79)" fill="#147FB5"/>
</g>
</g>
</g>
</g>
</g>
<defs>
<path id="path0_fill" d="M 8.8967 11.9176L 1.10599 11.9176L 1.10599 6.19755L 8.89399 6.19755L 8.89399 11.9176L 8.8967 11.9176ZM 2.55353 3.48082C 2.55353 2.15959 3.65139 1.0851 5.00134 1.0851C 6.3513 1.0851 7.44916 2.15959 7.44916 3.48082L 7.44916 5.1151L 2.55353 5.1151L 2.55353 3.48082ZM 9.44969 5.1151L 8.55786 5.1151L 8.55786 3.48082C 8.55786 1.56 6.96122 0 5.00134 0C 3.04147 0 1.44483 1.56 1.44483 3.48082L 1.44483 5.1151L 0.552994 5.1151C 0.246679 5.1151 -1.54089e-15 5.35653 -1.54089e-15 5.65633L -1.54089e-15 12.4588C -1.54089e-15 12.7586 0.246679 13 0.552994 13L 9.44698 13C 9.7533 13 9.99998 12.7586 9.99998 12.4588L 9.99998 5.65633C 10.0027 5.35653 9.7533 5.1151 9.44969 5.1151Z"/>
<path id="path1_fill" d="M 0.552994 2.05612C 0.85931 2.05612 1.10599 1.81469 1.10599 1.5149L 1.10599 0.541224C 1.10599 0.241428 0.85931 -1.50809e-15 0.552994 -1.50809e-15C 0.246679 -1.50809e-15 1.65451e-07 0.241428 1.65451e-07 0.541224L 1.65451e-07 1.5149C 1.65451e-07 1.81204 0.246679 2.05612 0.552994 2.05612Z"/>
</defs>
</svg>
