<svg width="17" height="14" viewBox="0 0 17 14" version="1.1" xmlns="http://www.w3.org/2000/svg" xmlns:xlink="http://www.w3.org/1999/xlink">
<title>Group 2.10</title>
<desc>Created using Figma</desc>
<g id="Canvas" transform="translate(-1105 -8737)">
<g id="Group 2.10">
<g id="Group 2.6">
<g id="Group">
<g id="Vector">
<use xlink:href="#path0_stroke" transform="translate(1106 8738)" fill="#147FB5" fill-opacity="0.5"/>
</g>
<g id="Vector">
<use xlink:href="#path1_stroke" transform="translate(1115.13 8738)" fill="#147FB5" fill-opacity="0.5"/>
</g>
</g>
</g>
</g>
</g>
<defs>
<path id="path0_stroke" d="M 8.01788 4.94649L 8.47717 5.14418L 8.47932 5.13904L 8.01788 4.94649ZM 6.98513 6.78261L 6.55868 6.52158L 6.31496 6.91976L 6.6955 7.19018L 6.98513 6.78261ZM 10.9284 9.56187L 11.3951 9.38258L 11.3661 9.30701L 11.3147 9.24446L 10.9284 9.56187ZM 0.873142 11.99L 0.873733 11.49L 0.830658 11.4899L 0.78821 11.4972L 0.873142 11.99ZM 4.34693 6.81271L 4.60818 7.23903L 5.06805 6.95721L 4.75227 6.51997L 4.34693 6.81271ZM 5.67073 0C 5.67073 0.5 5.67053 0.5 5.67034 0.5C 5.67028 0.5 5.6701 0.5 5.66999 0.499999C 5.66978 0.499999 5.6696 0.499999 5.66944 0.499998C 5.66913 0.499997 5.66894 0.499996 5.66886 0.499995C 5.66871 0.499994 5.66903 0.499996 5.66979 0.500006C 5.67133 0.500027 5.67466 0.500083 5.67968 0.500223C 5.68973 0.500503 5.70649 0.501118 5.72909 0.502456C 5.7744 0.505141 5.84252 0.510693 5.92668 0.522112C 6.09662 0.54517 6.32324 0.590987 6.55654 0.680218C 7.02073 0.857756 7.46504 1.18378 7.61582 1.82085L 8.58893 1.59052C 8.33601 0.521909 7.56449 -0.00491347 6.91378 -0.253796C 6.58963 -0.377776 6.28403 -0.438565 6.06112 -0.468809C 5.94886 -0.484041 5.85539 -0.491815 5.78822 -0.495794C 5.75458 -0.497786 5.72737 -0.498837 5.70752 -0.49939C 5.69759 -0.499666 5.68948 -0.499819 5.68332 -0.499902C 5.68023 -0.499944 5.67763 -0.499968 5.67553 -0.499982C 5.67448 -0.499989 5.67355 -0.499994 5.67275 -0.499996C 5.67235 -0.499998 5.67198 -0.499999 5.67164 -0.499999C 5.67147 -0.499999 5.67124 -0.5 5.67116 -0.5C 5.67094 -0.5 5.67073 -0.5 5.67073 0ZM 7.61582 1.82085C 7.81026 2.64235 7.85743 3.21501 7.82876 3.65477C 7.80058 4.08726 7.69766 4.41552 7.55644 4.75394L 8.47932 5.13904C 8.64792 4.73498 8.78911 4.29568 8.82665 3.71981C 8.8637 3.15121 8.79821 2.47471 8.58893 1.59052L 7.61582 1.82085ZM 7.55862 4.74881C 7.46501 4.96628 7.22371 5.39778 6.98864 5.80073C 6.87448 5.99644 6.76682 6.17693 6.68765 6.30858C 6.64809 6.37435 6.61572 6.42781 6.5933 6.46474C 6.58208 6.4832 6.57336 6.49752 6.56748 6.50717C 6.56453 6.51199 6.5623 6.51565 6.56082 6.51807C 6.56008 6.51929 6.55953 6.52019 6.55917 6.52078C 6.55899 6.52107 6.55886 6.52128 6.55878 6.52142C 6.55874 6.52149 6.55871 6.52153 6.55869 6.52156C 6.55868 6.52157 6.55868 6.52158 6.55867 6.52158C 6.55868 6.52158 6.55868 6.52158 6.98513 6.78261C 7.41159 7.04364 7.4116 7.04362 7.41161 7.0436C 7.41162 7.04359 7.41163 7.04356 7.41165 7.04354C 7.41168 7.04348 7.41173 7.04341 7.41179 7.04331C 7.4119 7.04312 7.41207 7.04285 7.41228 7.0425C 7.41271 7.0418 7.41333 7.04078 7.41414 7.03946C 7.41577 7.0368 7.41815 7.0329 7.42124 7.02783C 7.42742 7.01769 7.43646 7.00285 7.44801 6.98384C 7.47109 6.94583 7.50422 6.89112 7.54462 6.82395C 7.62534 6.68971 7.73539 6.50523 7.85242 6.30462C 8.07974 5.91493 8.35481 5.42837 8.47714 5.14417L 7.55862 4.74881ZM 6.98513 6.78261C 6.6955 7.19018 6.69552 7.1902 6.69555 7.19022C 6.69557 7.19023 6.6956 7.19025 6.69564 7.19028C 6.69571 7.19033 6.69581 7.1904 6.69594 7.19049C 6.6962 7.19068 6.69657 7.19094 6.69704 7.19127C 6.69799 7.19195 6.69938 7.19293 6.70119 7.19421C 6.7048 7.19678 6.71011 7.20054 6.71703 7.20543C 6.73086 7.21522 6.75111 7.22952 6.77707 7.24778C 6.82899 7.28431 6.90376 7.33673 6.99568 7.40061C 7.1794 7.52828 7.43222 7.70218 7.70823 7.88677C 8.24592 8.24637 8.91644 8.67721 9.32124 8.86262L 9.73765 7.95344C 9.41954 7.80774 8.81789 7.42587 8.26415 7.05554C 7.99445 6.87516 7.74675 6.70479 7.56636 6.57943C 7.47623 6.51679 7.40306 6.46551 7.35254 6.42996C 7.32728 6.41219 7.3077 6.39836 7.2945 6.38902C 7.2879 6.38435 7.28289 6.3808 7.27957 6.37845C 7.27791 6.37727 7.27667 6.3764 7.27587 6.37582C 7.27547 6.37554 7.27517 6.37533 7.27499 6.3752C 7.27489 6.37513 7.27483 6.37508 7.27479 6.37506C 7.27477 6.37504 7.27476 6.37504 7.27476 6.37503C 7.27475 6.37503 7.27476 6.37504 6.98513 6.78261ZM 9.32124 8.86262C 9.60714 8.99356 9.90911 9.23678 10.1551 9.47114C 10.2742 9.58459 10.3728 9.68875 10.4411 9.7641C 10.4752 9.80166 10.5015 9.83173 10.5187 9.85182C 10.5274 9.86186 10.5337 9.86938 10.5377 9.87407C 10.5396 9.87641 10.541 9.87805 10.5417 9.87893C 10.5421 9.87937 10.5423 9.87963 10.5424 9.87969C 10.5424 9.87972 10.5424 9.8797 10.5423 9.87963C 10.5423 9.8796 10.5422 9.87955 10.5422 9.8795C 10.5422 9.87947 10.5421 9.87942 10.5421 9.8794C 10.5421 9.87935 10.542 9.87929 10.9284 9.56187C 11.3147 9.24446 11.3146 9.2444 11.3146 9.24433C 11.3145 9.2443 11.3145 9.24423 11.3144 9.24417C 11.3144 9.24407 11.3143 9.24395 11.3141 9.24381C 11.3139 9.24355 11.3137 9.24323 11.3134 9.24287C 11.3128 9.24213 11.312 9.2412 11.3111 9.24008C 11.3092 9.23783 11.3067 9.2348 11.3035 9.23104C 11.2972 9.22351 11.2883 9.21303 11.277 9.19993C 11.2545 9.17373 11.2223 9.13694 11.1818 9.09219C 11.1008 9.00293 10.9851 8.88071 10.8449 8.74709C 10.5722 8.4873 10.1747 8.1536 9.73765 7.95344L 9.32124 8.86262ZM 10.9284 9.56187C 10.4616 9.74117 10.4616 9.74115 10.4616 9.74114C 10.4616 9.74114 10.4616 9.74113 10.4616 9.74113C 10.4616 9.74113 10.4616 9.74115 10.4616 9.74118C 10.4616 9.74124 10.4617 9.74136 10.4617 9.74154C 10.4619 9.74188 10.4621 9.74246 10.4624 9.74325C 10.463 9.74484 10.4639 9.7473 10.4652 9.75058C 10.4677 9.75716 10.4715 9.76703 10.4763 9.77982C 10.4859 9.8054 10.4998 9.84257 10.5166 9.88821C 10.5503 9.97973 10.5952 10.1042 10.6404 10.2372C 10.686 10.3709 10.7303 10.5088 10.7638 10.6282C 10.7806 10.6879 10.7936 10.7393 10.8025 10.7809C 10.807 10.8016 10.81 10.8179 10.812 10.8304C 10.814 10.8433 10.8143 10.8484 10.8143 10.8472L 11.8123 10.7849C 11.804 10.6512 11.7635 10.4893 11.7266 10.358C 11.6862 10.214 11.6355 10.0571 11.5871 9.91502C 11.5385 9.77203 11.4906 9.63942 11.4551 9.54281C 11.4373 9.49439 11.4224 9.45474 11.412 9.42702C 11.4067 9.41315 11.4026 9.40225 11.3997 9.39472C 11.3983 9.39095 11.3972 9.38802 11.3964 9.38598C 11.396 9.38496 11.3957 9.38417 11.3955 9.3836C 11.3954 9.38331 11.3953 9.38308 11.3952 9.38291C 11.3952 9.38283 11.3952 9.38276 11.3951 9.3827C 11.3951 9.38267 11.3951 9.38264 11.3951 9.38263C 11.3951 9.3826 11.3951 9.38258 10.9284 9.56187ZM 10.8143 10.8472C 10.8177 10.9027 10.826 10.9681 10.8313 11.0125C 10.8375 11.0644 10.8429 11.1124 10.846 11.1608C 10.8527 11.2618 10.8471 11.3334 10.8332 11.3813C 10.8226 11.4178 10.8115 11.4291 10.795 11.44C 10.7695 11.4568 10.6831 11.5 10.4683 11.5L 10.4683 12.5C 10.8075 12.5 11.1059 12.4328 11.3457 12.2747C 11.5944 12.1106 11.7289 11.8824 11.7934 11.6605C 11.8546 11.45 11.8537 11.2444 11.8439 11.0953C 11.8389 11.0186 11.8307 10.9482 11.8243 10.8942C 11.817 10.8327 11.8135 10.8046 11.8123 10.7849L 10.8143 10.8472ZM 10.4683 11.5C 9.91474 11.5 7.51636 11.4975 5.25583 11.495C 4.12569 11.4937 3.03016 11.4925 2.21717 11.4915C 1.81068 11.4911 1.47482 11.4907 1.24058 11.4904C 1.12346 11.4903 1.03175 11.4902 0.969317 11.4901C 0.938101 11.49 0.914205 11.49 0.898112 11.49C 0.890066 11.49 0.883971 11.49 0.879888 11.49C 0.877846 11.49 0.876307 11.49 0.875279 11.49C 0.874765 11.49 0.874378 11.49 0.87412 11.49C 0.873991 11.49 0.873894 11.49 0.87383 11.49C 0.873765 11.49 0.873733 11.49 0.873142 11.99C 0.87255 12.49 0.872583 12.49 0.872648 12.49C 0.872712 12.49 0.872809 12.49 0.872938 12.49C 0.873196 12.49 0.873583 12.49 0.874097 12.49C 0.875126 12.49 0.876665 12.49 0.878707 12.49C 0.882791 12.49 0.888886 12.49 0.896933 12.49C 0.913026 12.49 0.936923 12.49 0.96814 12.4901C 1.03057 12.4902 1.12229 12.4903 1.23941 12.4904C 1.47365 12.4907 1.80952 12.4911 2.21602 12.4915C 3.02902 12.4925 4.12456 12.4937 5.25472 12.495C 7.51482 12.4975 9.91402 12.5 10.4683 12.5L 10.4683 11.5ZM 0.873142 11.99C 0.78821 11.4972 0.788443 11.4972 0.788673 11.4972C 0.788746 11.4971 0.788974 11.4971 0.789119 11.4971C 0.78941 11.497 0.78969 11.497 0.789958 11.4969C 0.790493 11.4968 0.790982 11.4968 0.791425 11.4967C 0.79231 11.4965 0.793014 11.4964 0.793541 11.4964C 0.794593 11.4962 0.79495 11.4961 0.794662 11.4962C 0.794068 11.4963 0.790989 11.4967 0.785804 11.4972C 0.775215 11.4983 0.757284 11.4996 0.734798 11.4997C 0.686259 11.4999 0.635443 11.4941 0.594647 11.4805C 0.557456 11.4681 0.544233 11.4549 0.537622 11.4461C 0.532323 11.4389 0.5 11.3936 0.5 11.2575L -0.5 11.2575C -0.5 11.5629 -0.423181 11.8299 -0.264765 12.0429C -0.107663 12.2541 0.0974005 12.3689 0.278495 12.4292C 0.455984 12.4884 0.623453 12.5001 0.738629 12.4997C 0.798 12.4995 0.848282 12.4959 0.885444 12.4922C 0.904134 12.4903 0.919814 12.4884 0.932009 12.4867C 0.938116 12.4859 0.943377 12.4851 0.947733 12.4844C 0.949912 12.4841 0.951868 12.4837 0.953593 12.4835C 0.954455 12.4833 0.95526 12.4832 0.956007 12.4831C 0.956381 12.483 0.95674 12.4829 0.957084 12.4829C 0.957256 12.4828 0.957504 12.4828 0.95759 12.4828C 0.957833 12.4827 0.958073 12.4827 0.873142 11.99ZM 0 11.2575C 0.5 11.2575 0.5 11.2577 0.5 11.2579C 0.5 11.2579 0.5 11.2581 0.5 11.2582C 0.499999 11.2584 0.499999 11.2585 0.499998 11.2587C 0.499998 11.2589 0.499997 11.2591 0.499997 11.2591C 0.499996 11.2592 0.499998 11.2589 0.500008 11.258C 0.500028 11.2564 0.50008 11.253 0.500208 11.248C 0.500463 11.2378 0.501021 11.2211 0.502227 11.1984C 0.504645 11.153 0.509643 11.0843 0.51994 10.9981C 0.540646 10.8248 0.582158 10.5861 0.664463 10.3261C 0.830864 9.80034 1.14689 9.23689 1.74461 8.90552L 1.25975 8.03093C 0.355292 8.53234 -0.0797744 9.36354 -0.288918 10.0243C -0.394386 10.3575 -0.44676 10.6599 -0.472997 10.8795C -0.486172 10.9897 -0.492909 11.0804 -0.496359 11.1453C -0.498087 11.1777 -0.498996 11.2038 -0.499474 11.2227C -0.499713 11.2322 -0.499845 11.2399 -0.499916 11.2457C -0.499952 11.2487 -0.499973 11.2511 -0.499985 11.2531C -0.499991 11.2541 -0.499995 11.2549 -0.499997 11.2557C -0.499998 11.256 -0.499999 11.2564 -0.499999 11.2567C -0.5 11.2568 -0.5 11.257 -0.5 11.2571C -0.5 11.2573 -0.5 11.2575 0 11.2575ZM 1.74461 8.90552C 2.5011 8.48614 3.21659 8.06974 3.74254 7.75846C 4.00565 7.60274 4.22167 7.47312 4.37207 7.38234C 4.44728 7.33694 4.5061 7.30124 4.54622 7.27683C 4.56628 7.26462 4.58166 7.25524 4.59209 7.24887C 4.5973 7.24569 4.60127 7.24326 4.60396 7.24161C 4.60531 7.24079 4.60634 7.24016 4.60704 7.23972C 4.6074 7.23951 4.60767 7.23934 4.60786 7.23923C 4.60795 7.23917 4.60803 7.23912 4.60808 7.23909C 4.60811 7.23907 4.60813 7.23906 4.60815 7.23905C 4.60817 7.23904 4.60818 7.23903 4.34693 6.81271C 4.08568 6.38639 4.08568 6.38639 4.08568 6.38639C 4.08568 6.38639 4.08567 6.3864 4.08566 6.3864C 4.08563 6.38642 4.08558 6.38645 4.08551 6.38649C 4.08538 6.38658 4.08516 6.38671 4.08486 6.38689C 4.08426 6.38726 4.08334 6.38782 4.0821 6.38858C 4.07962 6.3901 4.07587 6.39239 4.07089 6.39544C 4.06091 6.40153 4.04598 6.41063 4.0264 6.42255C 3.98723 6.44638 3.92942 6.48147 3.85529 6.52622C 3.70702 6.61572 3.49351 6.74383 3.23321 6.89789C 2.71232 7.20618 2.00543 7.61754 1.25975 8.03093L 1.74461 8.90552ZM 4.34693 6.81271C 4.75227 6.51997 4.75228 6.51998 4.75229 6.51999C 4.75229 6.51999 4.75229 6.52 4.75229 6.51999C 4.75228 6.51997 4.75225 6.51993 4.7522 6.51987C 4.75212 6.51975 4.75196 6.51954 4.75175 6.51924C 4.75132 6.51864 4.75063 6.51769 4.7497 6.51639C 4.74783 6.5138 4.74498 6.50983 4.7412 6.50455C 4.73364 6.494 4.72238 6.47825 4.70793 6.4579C 4.679 6.41718 4.63732 6.35812 4.58683 6.28551C 4.48566 6.14003 4.35001 5.94139 4.21111 5.7276C 4.07156 5.5128 3.93214 5.2879 3.82174 5.08876C 3.7029 4.87441 3.64502 4.73755 3.63204 4.6821L 2.65833 4.90988C 2.70638 5.11529 2.82924 5.36095 2.94716 5.57365C 3.07353 5.80157 3.22691 6.04823 3.37254 6.2724C 3.51883 6.49757 3.66073 6.70529 3.76581 6.85642C 3.81845 6.93212 3.86207 6.99393 3.89267 7.037C 3.90798 7.05855 3.92004 7.07543 3.92835 7.08703C 3.93251 7.09284 3.93573 7.09732 3.93796 7.10042C 3.93907 7.10196 3.93994 7.10316 3.94055 7.10401C 3.94085 7.10443 3.94109 7.10476 3.94126 7.105C 3.94135 7.10512 3.94142 7.10522 3.94147 7.10529C 3.9415 7.10533 3.94153 7.10537 3.94154 7.10539C 3.94157 7.10542 3.94159 7.10545 4.34693 6.81271ZM 3.63204 4.6821C 3.50133 4.12332 3.18138 2.92432 3.60838 1.87391L 2.682 1.49733C 2.1138 2.89507 2.54494 4.42518 2.65833 4.90988L 3.63204 4.6821ZM 3.60838 1.87391C 3.82635 1.3377 4.10704 1.00794 4.42556 0.806155C 4.74733 0.602315 5.15366 0.5 5.67073 0.5L 5.67073 -0.5C 5.0236 -0.5 4.41597 -0.371545 3.8904 -0.0385962C 3.36161 0.296403 2.96162 0.809459 2.682 1.49733L 3.60838 1.87391Z"/>
<path id="path1_stroke" d="M 2.43165 1.70569L 2.07041 1.80631L 2.43165 1.70569ZM 2.43165 4.66667L 2.77612 4.81494L 2.77773 4.81108L 2.43165 4.66667ZM 1.30435 6L 1.05157 5.723L 0.674375 6.06721L 1.1157 6.32409L 1.30435 6ZM 3.26087 7.33333L 3.50517 7.04883L 3.26087 7.33333ZM 5.21739 8.66667L 5.50712 8.42859L 5.21739 8.66667ZM 0 0C 0 0.375 -0.000152441 0.375 -0.000297445 0.375C -0.000335967 0.375 -0.000474083 0.375 -0.000551362 0.375C -0.000706165 0.374999 -0.000832061 0.374999 -0.000929251 0.374999C -0.00112362 0.374998 -0.00120323 0.374997 -0.00116969 0.374998C -0.00110252 0.374998 -0.000583269 0.375002 0.000375215 0.375015C 0.00229297 0.375042 0.00596313 0.375107 0.0112832 0.375261C 0.0219307 0.375568 0.0391372 0.376226 0.0620867 0.377631C 0.108065 0.380445 0.176606 0.386225 0.261266 0.398047C 0.431674 0.421844 0.661428 0.469305 0.901792 0.562735C 1.37958 0.748451 1.8744 1.10268 2.07041 1.80631L 2.7929 1.60506C 2.51377 0.603006 1.79277 0.104392 1.17351 -0.136313C 0.865355 -0.256094 0.576282 -0.315239 0.364995 -0.344745C 0.258807 -0.359574 0.170783 -0.36712 0.107908 -0.370968C 0.0764307 -0.372895 0.0511386 -0.373902 0.0328941 -0.374428C 0.0237682 -0.374691 0.016394 -0.374834 0.0108789 -0.374911C 0.00812101 -0.37495 0.00582672 -0.374972 0.00400946 -0.374985C 0.00310078 -0.374991 0.00231123 -0.374995 0.00164247 -0.374997C 0.00130809 -0.374998 0.00100389 -0.374999 0.000730077 -0.374999C 0.000593294 -0.375 0.0004105 -0.375 0.000342175 -0.375C 0.000167368 -0.375 0 -0.375 0 0ZM 2.07041 1.80631C 2.19362 2.24866 2.2669 2.77069 2.27219 3.26832C 2.27754 3.77177 2.21292 4.21707 2.08557 4.52225L 2.77773 4.81108C 2.9602 4.37379 3.02803 3.81405 3.02215 3.26035C 3.0162 2.70084 2.93456 2.11362 2.7929 1.60506L 2.07041 1.80631ZM 2.08721 4.5184C 2.00907 4.69993 1.7737 4.98861 1.51401 5.26438C 1.39171 5.39426 1.27541 5.50958 1.18956 5.59252C 1.14674 5.6339 1.11174 5.66697 1.08767 5.68951C 1.07564 5.70077 1.06635 5.70938 1.0602 5.71506C 1.05713 5.7179 1.05484 5.72 1.05338 5.72134C 1.05266 5.72201 1.05214 5.72248 1.05183 5.72276C 1.05168 5.7229 1.05158 5.72299 1.05154 5.72303C 1.05152 5.72305 1.05151 5.72306 1.05151 5.72305C 1.05152 5.72305 1.05153 5.72304 1.05153 5.72303C 1.05155 5.72302 1.05157 5.723 1.30435 6C 1.55712 6.277 1.55715 6.27698 1.55718 6.27695C 1.5572 6.27693 1.55723 6.2769 1.55726 6.27687C 1.55732 6.27682 1.5574 6.27675 1.55749 6.27667C 1.55766 6.27651 1.5579 6.27629 1.55818 6.27603C 1.55876 6.27551 1.55955 6.27478 1.56055 6.27386C 1.56256 6.27202 1.56541 6.26939 1.56907 6.26602C 1.57637 6.25927 1.58688 6.24952 1.60019 6.23706C 1.6268 6.21215 1.66469 6.17634 1.71068 6.13191C 1.80246 6.04324 1.9275 5.91928 2.06003 5.77854C 2.31002 5.51307 2.6383 5.13507 2.7761 4.81493L 2.08721 4.5184ZM 1.30435 6C 1.1157 6.32409 1.11569 6.32409 1.11568 6.32408C 1.11568 6.32408 1.11568 6.32408 1.11568 6.32408C 1.1157 6.32409 1.11573 6.32411 1.11578 6.32414C 1.11588 6.3242 1.11606 6.3243 1.11631 6.32445C 1.11682 6.32475 1.11762 6.32522 1.11872 6.32586C 1.12091 6.32714 1.12426 6.3291 1.12872 6.33172C 1.13765 6.33696 1.15101 6.34483 1.16837 6.35512C 1.20309 6.3757 1.25376 6.40594 1.31689 6.44417C 1.44323 6.5207 1.61897 6.62898 1.81619 6.75572C 2.21473 7.01185 2.68566 7.33369 3.01657 7.61784L 3.50517 7.04883C 3.13294 6.72921 2.62561 6.38438 2.22167 6.12479C 2.01765 5.99367 1.8361 5.88182 1.70546 5.80268C 1.64009 5.76309 1.58736 5.73162 1.55079 5.70994C 1.5325 5.6991 1.51825 5.6907 1.50847 5.68496C 1.50358 5.68209 1.49981 5.67989 1.49721 5.67837C 1.49591 5.67761 1.49491 5.67702 1.4942 5.67661C 1.49385 5.6764 1.49357 5.67624 1.49337 5.67613C 1.49327 5.67607 1.49319 5.67602 1.49313 5.67598C 1.4931 5.67596 1.49306 5.67595 1.49305 5.67594C 1.49302 5.67592 1.493 5.67591 1.30435 6ZM 3.01657 7.61784C 3.32869 7.88584 3.74868 8.10205 4.08846 8.29306C 4.45492 8.49906 4.7463 8.68404 4.92766 8.90475L 5.50712 8.42859C 5.22514 8.08544 4.81406 7.84057 4.45599 7.63928C 4.07124 7.42299 3.74464 7.25446 3.50517 7.04883L 3.01657 7.61784ZM 4.92766 8.90475C 5.4399 9.52811 5.49457 10.0413 5.49457 10.6667L 6.24457 10.6667C 6.24457 9.9587 6.17616 9.24276 5.50712 8.42859L 4.92766 8.90475ZM 5.49457 10.6667C 5.49457 10.9637 5.44677 11.1487 5.38649 11.2654C 5.33055 11.3736 5.25379 11.4433 5.14577 11.4946C 5.02837 11.5504 4.86901 11.5865 4.65306 11.6056C 4.43741 11.6247 4.19424 11.625 3.91304 11.625L 3.91304 12.375C 4.18578 12.375 4.46413 12.3753 4.71919 12.3527C 4.97395 12.3302 5.23448 12.2829 5.46773 12.172C 5.71036 12.0567 5.915 11.8764 6.05281 11.6096C 6.18627 11.3513 6.24457 11.0363 6.24457 10.6667L 5.49457 10.6667Z"/>
</defs>
</svg>
